<?xml version="1.0" encoding="utf-8" standalone="no"?>
<!DOCTYPE svg PUBLIC "-//W3C//DTD SVG 1.1//EN"
  "http://www.w3.org/Graphics/SVG/1.1/DTD/svg11.dtd">
<svg xmlns:xlink="http://www.w3.org/1999/xlink" width="248.482188pt" height="220.973125pt" viewBox="0 0 248.482188 220.973125" xmlns="http://www.w3.org/2000/svg" version="1.1">
 <metadata>
  <rdf:RDF xmlns:dc="http://purl.org/dc/elements/1.1/" xmlns:cc="http://creativecommons.org/ns#" xmlns:rdf="http://www.w3.org/1999/02/22-rdf-syntax-ns#">
   <cc:Work>
    <dc:type rdf:resource="http://purl.org/dc/dcmitype/StillImage"/>
    <dc:date>2024-05-28T14:53:03.340728</dc:date>
    <dc:format>image/svg+xml</dc:format>
    <dc:creator>
     <cc:Agent>
      <dc:title>Matplotlib v3.7.1, https://matplotlib.org/</dc:title>
     </cc:Agent>
    </dc:creator>
   </cc:Work>
  </rdf:RDF>
 </metadata>
 <defs>
  <style type="text/css">*{stroke-linejoin: round; stroke-linecap: butt}</style>
 </defs>
 <g id="figure_1">
  <g id="patch_1">
   <path d="M 0 220.973125 
L 248.482188 220.973125 
L 248.482188 0 
L 0 0 
z
" style="fill: #ffffff"/>
  </g>
  <g id="axes_1">
   <g id="patch_2">
    <path d="M 45.982188 187.118437 
L 241.282188 187.118437 
L 241.282188 20.798437 
L 45.982188 20.798437 
L 45.982188 187.118437 
z
" style="fill: none"/>
   </g>
   <g id="PolyCollection_1">
    <defs>
     <path id="mdce4d33c3d" d="M 63.370125 -33.912265 
L 63.370125 -33.854688 
L 63.941031 -33.854688 
L 64.511938 -33.854688 
L 65.082844 -33.854688 
L 65.65375 -33.854688 
L 66.224656 -33.854688 
L 66.795562 -33.854688 
L 67.366469 -33.854688 
L 67.937375 -33.854688 
L 68.508281 -33.854688 
L 69.079187 -33.854688 
L 69.650093 -33.854688 
L 70.221 -33.854688 
L 70.791906 -33.854688 
L 71.362812 -33.854688 
L 71.933718 -33.854688 
L 72.504624 -33.854688 
L 73.07553 -33.854688 
L 73.646437 -33.854688 
L 74.217343 -33.854688 
L 74.788249 -33.854688 
L 75.359155 -33.854688 
L 75.930061 -33.854688 
L 76.500968 -33.854688 
L 77.071874 -33.854688 
L 77.64278 -33.854688 
L 78.213686 -33.854688 
L 78.784592 -33.854688 
L 79.355499 -33.854688 
L 79.926405 -33.854688 
L 80.497311 -33.854688 
L 81.068217 -33.854688 
L 81.639123 -33.854688 
L 82.210029 -33.854688 
L 82.780936 -33.854688 
L 83.351842 -33.854688 
L 83.922748 -33.854688 
L 84.493654 -33.854688 
L 85.06456 -33.854688 
L 85.635467 -33.854688 
L 86.206373 -33.854688 
L 86.777279 -33.854688 
L 87.348185 -33.854688 
L 87.919091 -33.854688 
L 88.489998 -33.854688 
L 89.060904 -33.854688 
L 89.63181 -33.854688 
L 90.202716 -33.854688 
L 90.773622 -33.854688 
L 91.344529 -33.854688 
L 91.915435 -33.854688 
L 92.486341 -33.854688 
L 93.057247 -33.854688 
L 93.628153 -33.854688 
L 94.199059 -33.854688 
L 94.769966 -33.854688 
L 95.340872 -33.854688 
L 95.911778 -33.854688 
L 96.482684 -33.854688 
L 97.05359 -33.854688 
L 97.624497 -33.854688 
L 98.195403 -33.854688 
L 98.766309 -33.854688 
L 99.337215 -33.854688 
L 99.908121 -33.854688 
L 100.479028 -33.854688 
L 101.049934 -33.854688 
L 101.62084 -33.854688 
L 102.191746 -33.854688 
L 102.762652 -33.854688 
L 103.333558 -33.854688 
L 103.904465 -33.854688 
L 104.475371 -33.854688 
L 105.046277 -33.854688 
L 105.617183 -33.854688 
L 106.188089 -33.854688 
L 106.758996 -33.854688 
L 107.329902 -33.854688 
L 107.900808 -33.854688 
L 108.471714 -33.854688 
L 109.04262 -33.854688 
L 109.613527 -33.854688 
L 110.184433 -33.854688 
L 110.755339 -33.854688 
L 111.326245 -33.854688 
L 111.897151 -33.854688 
L 112.468058 -33.854688 
L 113.038964 -33.854688 
L 113.60987 -33.854688 
L 114.180776 -33.854688 
L 114.751682 -33.854688 
L 115.322588 -33.854688 
L 115.893495 -33.854688 
L 116.464401 -33.854688 
L 117.035307 -33.854688 
L 117.606213 -33.854688 
L 118.177119 -33.854688 
L 118.748026 -33.854688 
L 119.318932 -33.854688 
L 119.889838 -33.854688 
L 120.460744 -33.854688 
L 121.03165 -33.854688 
L 121.602557 -33.854688 
L 122.173463 -33.854688 
L 122.744369 -33.854688 
L 123.315275 -33.854688 
L 123.886181 -33.854688 
L 124.457088 -33.854688 
L 125.027994 -33.854688 
L 125.5989 -33.854688 
L 126.169806 -33.854688 
L 126.740712 -33.854688 
L 127.311618 -33.854688 
L 127.882525 -33.854688 
L 128.453431 -33.854688 
L 129.024337 -33.854688 
L 129.595243 -33.854688 
L 130.166149 -33.854688 
L 130.737056 -33.854688 
L 131.307962 -33.854688 
L 131.878868 -33.854688 
L 132.449774 -33.854688 
L 133.02068 -33.854688 
L 133.591587 -33.854688 
L 134.162493 -33.854688 
L 134.733399 -33.854688 
L 135.304305 -33.854688 
L 135.875211 -33.854688 
L 136.446117 -33.854688 
L 137.017024 -33.854688 
L 137.58793 -33.854688 
L 138.158836 -33.854688 
L 138.729742 -33.854688 
L 139.300648 -33.854688 
L 139.871555 -33.854688 
L 140.442461 -33.854688 
L 141.013367 -33.854688 
L 141.584273 -33.854688 
L 142.155179 -33.854688 
L 142.726086 -33.854688 
L 143.296992 -33.854688 
L 143.867898 -33.854688 
L 144.438804 -33.854688 
L 145.00971 -33.854688 
L 145.580617 -33.854688 
L 146.151523 -33.854688 
L 146.722429 -33.854688 
L 147.293335 -33.854688 
L 147.864241 -33.854688 
L 148.435147 -33.854688 
L 149.006054 -33.854688 
L 149.57696 -33.854688 
L 150.147866 -33.854688 
L 150.718772 -33.854688 
L 151.289678 -33.854688 
L 151.860585 -33.854688 
L 152.431491 -33.854688 
L 153.002397 -33.854688 
L 153.573303 -33.854688 
L 154.144209 -33.854688 
L 154.715116 -33.854688 
L 155.286022 -33.854688 
L 155.856928 -33.854688 
L 156.427834 -33.854688 
L 156.99874 -33.854688 
L 157.569647 -33.854688 
L 158.140553 -33.854688 
L 158.711459 -33.854688 
L 159.282365 -33.854688 
L 159.853271 -33.854688 
L 160.424177 -33.854688 
L 160.995084 -33.854688 
L 161.56599 -33.854688 
L 162.136896 -33.854688 
L 162.707802 -33.854688 
L 163.278708 -33.854688 
L 163.849615 -33.854688 
L 164.420521 -33.854688 
L 164.991427 -33.854688 
L 165.562333 -33.854688 
L 166.133239 -33.854688 
L 166.704146 -33.854688 
L 167.275052 -33.854688 
L 167.845958 -33.854688 
L 168.416864 -33.854688 
L 168.98777 -33.854688 
L 169.558676 -33.854688 
L 170.129583 -33.854688 
L 170.700489 -33.854688 
L 171.271395 -33.854688 
L 171.842301 -33.854688 
L 172.413207 -33.854688 
L 172.984114 -33.854688 
L 173.55502 -33.854688 
L 174.125926 -33.854688 
L 174.696832 -33.854688 
L 175.267738 -33.854688 
L 175.838645 -33.854688 
L 176.409551 -33.854688 
L 176.980457 -33.854688 
L 176.980457 -33.962527 
L 176.980457 -33.962527 
L 176.409551 -34.000868 
L 175.838645 -34.05079 
L 175.267738 -34.115044 
L 174.696832 -34.196782 
L 174.125926 -34.29955 
L 173.55502 -34.427238 
L 172.984114 -34.584012 
L 172.413207 -34.7742 
L 171.842301 -35.002148 
L 171.271395 -35.272039 
L 170.700489 -35.587675 
L 170.129583 -35.952245 
L 169.558676 -36.368078 
L 168.98777 -36.836393 
L 168.416864 -37.35709 
L 167.845958 -37.928566 
L 167.275052 -38.547608 
L 166.704146 -39.209362 
L 166.133239 -39.907408 
L 165.562333 -40.633928 
L 164.991427 -41.379997 
L 164.420521 -42.135956 
L 163.849615 -42.891875 
L 163.278708 -43.638065 
L 162.707802 -44.365603 
L 162.136896 -45.066841 
L 161.56599 -45.735836 
L 160.995084 -46.368689 
L 160.424177 -46.963729 
L 159.853271 -47.521547 
L 159.282365 -48.044847 
L 158.711459 -48.538129 
L 158.140553 -49.007228 
L 157.569647 -49.458734 
L 156.99874 -49.899348 
L 156.427834 -50.33523 
L 155.856928 -50.771388 
L 155.286022 -51.211185 
L 154.715116 -51.655989 
L 154.144209 -52.105031 
L 153.573303 -52.555468 
L 153.002397 -53.002681 
L 152.431491 -53.440775 
L 151.860585 -53.863266 
L 151.289678 -54.263887 
L 150.718772 -54.637491 
L 150.147866 -54.980944 
L 149.57696 -55.293974 
L 149.006054 -55.579895 
L 148.435147 -55.846147 
L 147.864241 -56.104612 
L 147.293335 -56.371663 
L 146.722429 -56.667931 
L 146.151523 -57.017782 
L 145.580617 -57.448519 
L 145.00971 -57.989336 
L 144.438804 -58.670071 
L 143.867898 -59.519804 
L 143.296992 -60.565379 
L 142.726086 -61.829912 
L 142.155179 -63.331375 
L 141.584273 -65.081331 
L 141.013367 -67.0839 
L 140.442461 -69.33502 
L 139.871555 -71.822076 
L 139.300648 -74.523922 
L 138.729742 -77.411326 
L 138.158836 -80.44784 
L 137.58793 -83.59105 
L 137.017024 -86.794167 
L 136.446117 -90.007874 
L 135.875211 -93.182323 
L 135.304305 -96.269184 
L 134.733399 -99.223597 
L 134.162493 -102.005946 
L 133.591587 -104.583305 
L 133.02068 -106.930505 
L 132.449774 -109.030732 
L 131.878868 -110.875647 
L 131.307962 -112.465024 
L 130.737056 -113.805955 
L 130.166149 -114.911691 
L 129.595243 -115.800222 
L 129.024337 -116.492709 
L 128.453431 -117.01189 
L 127.882525 -117.38058 
L 127.311618 -117.620371 
L 126.740712 -117.750608 
L 126.169806 -117.787701 
L 125.5989 -117.74479 
L 125.027994 -117.631759 
L 124.457088 -117.455549 
L 123.886181 -117.220725 
L 123.315275 -116.930199 
L 122.744369 -116.586036 
L 122.173463 -116.190255 
L 121.602557 -115.745548 
L 121.03165 -115.255856 
L 120.460744 -114.726757 
L 119.889838 -114.165666 
L 119.318932 -113.581818 
L 118.748026 -112.986086 
L 118.177119 -112.390648 
L 117.606213 -111.808547 
L 117.035307 -111.253201 
L 116.464401 -110.737895 
L 115.893495 -110.275286 
L 115.322588 -109.876953 
L 114.751682 -109.553013 
L 114.180776 -109.311796 
L 113.60987 -109.159582 
L 113.038964 -109.10041 
L 112.468058 -109.135934 
L 111.897151 -109.265347 
L 111.326245 -109.485348 
L 110.755339 -109.790188 
L 110.184433 -110.171781 
L 109.613527 -110.619888 
L 109.04262 -111.122392 
L 108.471714 -111.665642 
L 107.900808 -112.234871 
L 107.329902 -112.814639 
L 106.758996 -113.389301 
L 106.188089 -113.943431 
L 105.617183 -114.462177 
L 105.046277 -114.931512 
L 104.475371 -115.338337 
L 103.904465 -115.670444 
L 103.333558 -115.916326 
L 102.762652 -116.064874 
L 102.191746 -116.104991 
L 101.62084 -116.025194 
L 101.049934 -115.813263 
L 100.479028 -115.456003 
L 99.908121 -114.939189 
L 99.337215 -114.247727 
L 98.766309 -113.366058 
L 98.195403 -112.278806 
L 97.624497 -110.971635 
L 97.05359 -109.432261 
L 96.482684 -107.651544 
L 95.911778 -105.624574 
L 95.340872 -103.351649 
L 94.769966 -100.839063 
L 94.199059 -98.099624 
L 93.628153 -95.152834 
L 93.057247 -92.02471 
L 92.486341 -88.74724 
L 91.915435 -85.357474 
L 91.344529 -81.896332 
L 90.773622 -78.407169 
L 90.202716 -74.934193 
L 89.63181 -71.520834 
L 89.060904 -68.208152 
L 88.489998 -65.033373 
L 87.919091 -62.028645 
L 87.348185 -59.220058 
L 86.777279 -56.626981 
L 86.206373 -54.261745 
L 85.635467 -52.129657 
L 85.06456 -50.229336 
L 84.493654 -48.553328 
L 83.922748 -47.088962 
L 83.351842 -45.81936 
L 82.780936 -44.724563 
L 82.210029 -43.782685 
L 81.639123 -42.971043 
L 81.068217 -42.267201 
L 80.497311 -41.649876 
L 79.926405 -41.099683 
L 79.355499 -40.599684 
L 78.784592 -40.13574 
L 78.213686 -39.696675 
L 77.64278 -39.274249 
L 77.071874 -38.862984 
L 76.500968 -38.459872 
L 75.930061 -38.063978 
L 75.359155 -37.676012 
L 74.788249 -37.297864 
L 74.217343 -36.932167 
L 73.646437 -36.581888 
L 73.07553 -36.249984 
L 72.504624 -35.939119 
L 71.933718 -35.651466 
L 71.362812 -35.388577 
L 70.791906 -35.151321 
L 70.221 -34.939886 
L 69.650093 -34.753825 
L 69.079187 -34.592139 
L 68.508281 -34.453379 
L 67.937375 -34.335763 
L 67.366469 -34.237289 
L 66.795562 -34.155842 
L 66.224656 -34.089289 
L 65.65375 -34.035555 
L 65.082844 -33.992686 
L 64.511938 -33.958886 
L 63.941031 -33.932549 
L 63.370125 -33.912265 
z
" style="stroke: #1f77b4"/>
    </defs>
    <g clip-path="url(#pe6f5790825)">
     <use xlink:href="#mdce4d33c3d" x="0" y="220.973125" style="fill: #1f77b4; fill-opacity: 0.05; stroke: #1f77b4"/>
    </g>
   </g>
   <g id="PolyCollection_2">
    <defs>
     <path id="m7e10727555" d="M 104.13846 -33.883277 
L 104.13846 -33.854688 
L 104.676996 -33.854688 
L 105.215532 -33.854688 
L 105.754068 -33.854688 
L 106.292604 -33.854688 
L 106.83114 -33.854688 
L 107.369676 -33.854688 
L 107.908213 -33.854688 
L 108.446749 -33.854688 
L 108.985285 -33.854688 
L 109.523821 -33.854688 
L 110.062357 -33.854688 
L 110.600893 -33.854688 
L 111.139429 -33.854688 
L 111.677965 -33.854688 
L 112.216501 -33.854688 
L 112.755037 -33.854688 
L 113.293573 -33.854688 
L 113.832109 -33.854688 
L 114.370645 -33.854688 
L 114.909181 -33.854688 
L 115.447717 -33.854688 
L 115.986253 -33.854688 
L 116.524789 -33.854688 
L 117.063325 -33.854688 
L 117.601861 -33.854688 
L 118.140397 -33.854688 
L 118.678933 -33.854688 
L 119.217469 -33.854688 
L 119.756005 -33.854688 
L 120.294541 -33.854688 
L 120.833077 -33.854688 
L 121.371613 -33.854688 
L 121.910149 -33.854688 
L 122.448685 -33.854688 
L 122.987221 -33.854688 
L 123.525757 -33.854688 
L 124.064293 -33.854688 
L 124.60283 -33.854688 
L 125.141366 -33.854688 
L 125.679902 -33.854688 
L 126.218438 -33.854688 
L 126.756974 -33.854688 
L 127.29551 -33.854688 
L 127.834046 -33.854688 
L 128.372582 -33.854688 
L 128.911118 -33.854688 
L 129.449654 -33.854688 
L 129.98819 -33.854688 
L 130.526726 -33.854688 
L 131.065262 -33.854688 
L 131.603798 -33.854688 
L 132.142334 -33.854688 
L 132.68087 -33.854688 
L 133.219406 -33.854688 
L 133.757942 -33.854688 
L 134.296478 -33.854688 
L 134.835014 -33.854688 
L 135.37355 -33.854688 
L 135.912086 -33.854688 
L 136.450622 -33.854688 
L 136.989158 -33.854688 
L 137.527694 -33.854688 
L 138.06623 -33.854688 
L 138.604766 -33.854688 
L 139.143302 -33.854688 
L 139.681838 -33.854688 
L 140.220374 -33.854688 
L 140.75891 -33.854688 
L 141.297447 -33.854688 
L 141.835983 -33.854688 
L 142.374519 -33.854688 
L 142.913055 -33.854688 
L 143.451591 -33.854688 
L 143.990127 -33.854688 
L 144.528663 -33.854688 
L 145.067199 -33.854688 
L 145.605735 -33.854688 
L 146.144271 -33.854688 
L 146.682807 -33.854688 
L 147.221343 -33.854688 
L 147.759879 -33.854688 
L 148.298415 -33.854688 
L 148.836951 -33.854688 
L 149.375487 -33.854688 
L 149.914023 -33.854688 
L 150.452559 -33.854688 
L 150.991095 -33.854688 
L 151.529631 -33.854688 
L 152.068167 -33.854688 
L 152.606703 -33.854688 
L 153.145239 -33.854688 
L 153.683775 -33.854688 
L 154.222311 -33.854688 
L 154.760847 -33.854688 
L 155.299383 -33.854688 
L 155.837919 -33.854688 
L 156.376455 -33.854688 
L 156.914991 -33.854688 
L 157.453528 -33.854688 
L 157.992064 -33.854688 
L 158.5306 -33.854688 
L 159.069136 -33.854688 
L 159.607672 -33.854688 
L 160.146208 -33.854688 
L 160.684744 -33.854688 
L 161.22328 -33.854688 
L 161.761816 -33.854688 
L 162.300352 -33.854688 
L 162.838888 -33.854688 
L 163.377424 -33.854688 
L 163.91596 -33.854688 
L 164.454496 -33.854688 
L 164.993032 -33.854688 
L 165.531568 -33.854688 
L 166.070104 -33.854688 
L 166.60864 -33.854688 
L 167.147176 -33.854688 
L 167.685712 -33.854688 
L 168.224248 -33.854688 
L 168.762784 -33.854688 
L 169.30132 -33.854688 
L 169.839856 -33.854688 
L 170.378392 -33.854688 
L 170.916928 -33.854688 
L 171.455464 -33.854688 
L 171.994 -33.854688 
L 172.532536 -33.854688 
L 173.071072 -33.854688 
L 173.609608 -33.854688 
L 174.148145 -33.854688 
L 174.686681 -33.854688 
L 175.225217 -33.854688 
L 175.763753 -33.854688 
L 176.302289 -33.854688 
L 176.840825 -33.854688 
L 177.379361 -33.854688 
L 177.917897 -33.854688 
L 178.456433 -33.854688 
L 178.994969 -33.854688 
L 179.533505 -33.854688 
L 180.072041 -33.854688 
L 180.610577 -33.854688 
L 181.149113 -33.854688 
L 181.687649 -33.854688 
L 182.226185 -33.854688 
L 182.764721 -33.854688 
L 183.303257 -33.854688 
L 183.841793 -33.854688 
L 184.380329 -33.854688 
L 184.918865 -33.854688 
L 185.457401 -33.854688 
L 185.995937 -33.854688 
L 186.534473 -33.854688 
L 187.073009 -33.854688 
L 187.611545 -33.854688 
L 188.150081 -33.854688 
L 188.688617 -33.854688 
L 189.227153 -33.854688 
L 189.765689 -33.854688 
L 190.304225 -33.854688 
L 190.842762 -33.854688 
L 191.381298 -33.854688 
L 191.919834 -33.854688 
L 192.45837 -33.854688 
L 192.996906 -33.854688 
L 193.535442 -33.854688 
L 194.073978 -33.854688 
L 194.612514 -33.854688 
L 195.15105 -33.854688 
L 195.689586 -33.854688 
L 196.228122 -33.854688 
L 196.766658 -33.854688 
L 197.305194 -33.854688 
L 197.84373 -33.854688 
L 198.382266 -33.854688 
L 198.920802 -33.854688 
L 199.459338 -33.854688 
L 199.997874 -33.854688 
L 200.53641 -33.854688 
L 201.074946 -33.854688 
L 201.613482 -33.854688 
L 202.152018 -33.854688 
L 202.690554 -33.854688 
L 203.22909 -33.854688 
L 203.767626 -33.854688 
L 204.306162 -33.854688 
L 204.844698 -33.854688 
L 205.383234 -33.854688 
L 205.92177 -33.854688 
L 206.460306 -33.854688 
L 206.998842 -33.854688 
L 207.537379 -33.854688 
L 208.075915 -33.854688 
L 208.614451 -33.854688 
L 209.152987 -33.854688 
L 209.691523 -33.854688 
L 210.230059 -33.854688 
L 210.768595 -33.854688 
L 211.307131 -33.854688 
L 211.307131 -33.876881 
L 211.307131 -33.876881 
L 210.768595 -33.889576 
L 210.230059 -33.908342 
L 209.691523 -33.935419 
L 209.152987 -33.973548 
L 208.614451 -34.025935 
L 208.075915 -34.096151 
L 207.537379 -34.187931 
L 206.998842 -34.304885 
L 206.460306 -34.450108 
L 205.92177 -34.62572 
L 205.383234 -34.832372 
L 204.844698 -35.068777 
L 204.306162 -35.331336 
L 203.767626 -35.613927 
L 203.22909 -35.907922 
L 202.690554 -36.202481 
L 202.152018 -36.485121 
L 201.613482 -36.742537 
L 201.074946 -36.961616 
L 200.53641 -37.130516 
L 199.997874 -37.239724 
L 199.459338 -37.282927 
L 198.920802 -37.257625 
L 198.382266 -37.165379 
L 197.84373 -37.011684 
L 197.305194 -36.805473 
L 196.766658 -36.558331 
L 196.228122 -36.283515 
L 195.689586 -35.99491 
L 195.15105 -35.70604 
L 194.612514 -35.429238 
L 194.073978 -35.175054 
L 193.535442 -34.951914 
L 192.996906 -34.766041 
L 192.45837 -34.621559 
L 191.919834 -34.520738 
L 191.381298 -34.464284 
L 190.842762 -34.451623 
L 190.304225 -34.481131 
L 189.765689 -34.550299 
L 189.227153 -34.655875 
L 188.688617 -34.79402 
L 188.150081 -34.960559 
L 187.611545 -35.151378 
L 187.073009 -35.363009 
L 186.534473 -35.593386 
L 185.995937 -35.842726 
L 185.457401 -36.114399 
L 184.918865 -36.415656 
L 184.380329 -36.758035 
L 183.841793 -37.157319 
L 183.303257 -37.632942 
L 182.764721 -38.206845 
L 182.226185 -38.90188 
L 181.687649 -39.739916 
L 181.149113 -40.739906 
L 180.610577 -41.916147 
L 180.072041 -43.276943 
L 179.533505 -44.823806 
L 178.994969 -46.551193 
L 178.456433 -48.446681 
L 177.917897 -50.491398 
L 177.379361 -52.660482 
L 176.840825 -54.923397 
L 176.302289 -57.244042 
L 175.763753 -59.580703 
L 175.225217 -61.886095 
L 174.686681 -64.107775 
L 174.148145 -66.18929 
L 173.609608 -68.072302 
L 173.071072 -69.699791 
L 172.532536 -71.020179 
L 171.994 -71.991999 
L 171.455464 -72.588541 
L 170.916928 -72.801796 
L 170.378392 -72.645068 
L 169.839856 -72.153788 
L 169.30132 -71.384297 
L 168.762784 -70.410668 
L 168.224248 -69.319919 
L 167.685712 -68.206156 
L 167.147176 -67.164297 
L 166.60864 -66.284018 
L 166.070104 -65.644453 
L 165.531568 -65.310043 
L 164.993032 -65.327745 
L 164.454496 -65.725664 
L 163.91596 -66.513069 
L 163.377424 -67.681648 
L 162.838888 -69.207811 
L 162.300352 -71.055828 
L 161.761816 -73.181509 
L 161.22328 -75.536126 
L 160.684744 -78.070235 
L 160.146208 -80.737055 
L 159.607672 -83.495108 
L 159.069136 -86.30989 
L 158.5306 -89.154458 
L 157.992064 -92.008971 
L 157.453528 -94.859318 
L 156.914991 -97.695115 
L 156.376455 -100.507379 
L 155.837919 -103.286265 
L 155.299383 -106.019178 
L 154.760847 -108.689586 
L 154.222311 -111.276708 
L 153.683775 -113.756179 
L 153.145239 -116.101645 
L 152.606703 -118.287098 
L 152.068167 -120.289636 
L 151.529631 -122.092253 
L 150.991095 -123.686221 
L 150.452559 -125.072714 
L 149.914023 -126.263397 
L 149.375487 -127.279936 
L 148.836951 -128.152538 
L 148.298415 -128.917787 
L 147.759879 -129.616151 
L 147.221343 -130.289494 
L 146.682807 -130.97884 
L 146.144271 -131.722514 
L 145.605735 -132.554582 
L 145.067199 -133.503439 
L 144.528663 -134.590337 
L 143.990127 -135.827714 
L 143.451591 -137.217318 
L 142.913055 -138.748286 
L 142.374519 -140.395546 
L 141.835983 -142.118958 
L 141.297447 -143.863689 
L 140.75891 -145.562182 
L 140.220374 -147.137852 
L 139.681838 -148.510428 
L 139.143302 -149.602459 
L 138.604766 -150.346306 
L 138.06623 -150.690705 
L 137.527694 -150.605964 
L 136.989158 -150.086964 
L 136.450622 -149.153432 
L 135.912086 -147.847328 
L 135.37355 -146.22768 
L 134.835014 -144.363607 
L 134.296478 -142.326619 
L 133.757942 -140.183377 
L 133.219406 -137.99004 
L 132.68087 -135.788995 
L 132.142334 -133.608308 
L 131.603798 -131.463692 
L 131.065262 -129.362293 
L 130.526726 -127.307223 
L 129.98819 -125.301674 
L 129.449654 -123.351523 
L 128.911118 -121.465731 
L 128.372582 -119.654331 
L 127.834046 -117.924393 
L 127.29551 -116.274868 
L 126.756974 -114.69152 
L 126.218438 -113.143283 
L 125.679902 -111.581151 
L 125.141366 -109.940268 
L 124.60283 -108.145289 
L 124.064293 -106.118421 
L 123.525757 -103.788976 
L 122.987221 -101.102962 
L 122.448685 -98.031117 
L 121.910149 -94.574074 
L 121.371613 -90.763813 
L 120.833077 -86.661179 
L 120.294541 -82.349925 
L 119.756005 -77.928287 
L 119.217469 -73.499399 
L 118.678933 -69.161993 
L 118.140397 -65.002591 
L 117.601861 -61.090053 
L 117.063325 -57.47288 
L 116.524789 -54.17915 
L 115.986253 -51.218624 
L 115.447717 -48.586275 
L 114.909181 -46.266476 
L 114.370645 -44.23709 
L 113.832109 -42.472961 
L 113.293573 -40.948501 
L 112.755037 -39.639294 
L 112.216501 -38.52285 
L 111.677965 -37.578712 
L 111.139429 -36.788193 
L 110.600893 -36.133974 
L 110.062357 -35.599741 
L 109.523821 -35.169957 
L 108.985285 -34.829805 
L 108.446749 -34.565276 
L 107.908213 -34.36334 
L 107.369676 -34.212145 
L 106.83114 -34.10119 
L 106.292604 -34.021425 
L 105.754068 -33.965274 
L 105.215532 -33.926583 
L 104.676996 -33.900491 
L 104.13846 -33.883277 
z
" style="stroke: #ff7f0e"/>
    </defs>
    <g clip-path="url(#pe6f5790825)">
     <use xlink:href="#m7e10727555" x="0" y="220.973125" style="fill: #ff7f0e; fill-opacity: 0.05; stroke: #ff7f0e"/>
    </g>
   </g>
   <g id="PolyCollection_3">
    <defs>
     <path id="mddbae05a1c" d="M 96.149259 -34.01308 
L 96.149259 -33.854688 
L 96.565298 -33.854688 
L 96.981338 -33.854688 
L 97.397377 -33.854688 
L 97.813416 -33.854688 
L 98.229455 -33.854688 
L 98.645495 -33.854688 
L 99.061534 -33.854688 
L 99.477573 -33.854688 
L 99.893612 -33.854688 
L 100.309652 -33.854688 
L 100.725691 -33.854688 
L 101.14173 -33.854688 
L 101.557769 -33.854688 
L 101.973809 -33.854688 
L 102.389848 -33.854688 
L 102.805887 -33.854688 
L 103.221926 -33.854688 
L 103.637966 -33.854688 
L 104.054005 -33.854688 
L 104.470044 -33.854688 
L 104.886083 -33.854688 
L 105.302123 -33.854688 
L 105.718162 -33.854688 
L 106.134201 -33.854688 
L 106.55024 -33.854688 
L 106.96628 -33.854688 
L 107.382319 -33.854688 
L 107.798358 -33.854688 
L 108.214397 -33.854688 
L 108.630437 -33.854688 
L 109.046476 -33.854688 
L 109.462515 -33.854688 
L 109.878554 -33.854688 
L 110.294594 -33.854688 
L 110.710633 -33.854688 
L 111.126672 -33.854688 
L 111.542711 -33.854688 
L 111.958751 -33.854688 
L 112.37479 -33.854688 
L 112.790829 -33.854688 
L 113.206868 -33.854688 
L 113.622908 -33.854688 
L 114.038947 -33.854688 
L 114.454986 -33.854688 
L 114.871025 -33.854688 
L 115.287065 -33.854688 
L 115.703104 -33.854688 
L 116.119143 -33.854688 
L 116.535182 -33.854688 
L 116.951222 -33.854688 
L 117.367261 -33.854688 
L 117.7833 -33.854688 
L 118.199339 -33.854688 
L 118.615379 -33.854688 
L 119.031418 -33.854688 
L 119.447457 -33.854688 
L 119.863496 -33.854688 
L 120.279536 -33.854688 
L 120.695575 -33.854688 
L 121.111614 -33.854688 
L 121.527653 -33.854688 
L 121.943692 -33.854688 
L 122.359732 -33.854688 
L 122.775771 -33.854688 
L 123.19181 -33.854688 
L 123.607849 -33.854688 
L 124.023889 -33.854688 
L 124.439928 -33.854688 
L 124.855967 -33.854688 
L 125.272006 -33.854688 
L 125.688046 -33.854688 
L 126.104085 -33.854688 
L 126.520124 -33.854688 
L 126.936163 -33.854688 
L 127.352203 -33.854688 
L 127.768242 -33.854688 
L 128.184281 -33.854688 
L 128.60032 -33.854688 
L 129.01636 -33.854688 
L 129.432399 -33.854688 
L 129.848438 -33.854688 
L 130.264477 -33.854688 
L 130.680517 -33.854688 
L 131.096556 -33.854688 
L 131.512595 -33.854688 
L 131.928634 -33.854688 
L 132.344674 -33.854688 
L 132.760713 -33.854688 
L 133.176752 -33.854688 
L 133.592791 -33.854688 
L 134.008831 -33.854688 
L 134.42487 -33.854688 
L 134.840909 -33.854688 
L 135.256948 -33.854688 
L 135.672988 -33.854688 
L 136.089027 -33.854688 
L 136.505066 -33.854688 
L 136.921105 -33.854688 
L 137.337145 -33.854688 
L 137.753184 -33.854688 
L 138.169223 -33.854688 
L 138.585262 -33.854688 
L 139.001302 -33.854688 
L 139.417341 -33.854688 
L 139.83338 -33.854688 
L 140.249419 -33.854688 
L 140.665459 -33.854688 
L 141.081498 -33.854688 
L 141.497537 -33.854688 
L 141.913576 -33.854688 
L 142.329616 -33.854688 
L 142.745655 -33.854688 
L 143.161694 -33.854688 
L 143.577733 -33.854688 
L 143.993773 -33.854688 
L 144.409812 -33.854688 
L 144.825851 -33.854688 
L 145.24189 -33.854688 
L 145.65793 -33.854688 
L 146.073969 -33.854688 
L 146.490008 -33.854688 
L 146.906047 -33.854688 
L 147.322087 -33.854688 
L 147.738126 -33.854688 
L 148.154165 -33.854688 
L 148.570204 -33.854688 
L 148.986244 -33.854688 
L 149.402283 -33.854688 
L 149.818322 -33.854688 
L 150.234361 -33.854688 
L 150.650401 -33.854688 
L 151.06644 -33.854688 
L 151.482479 -33.854688 
L 151.898518 -33.854688 
L 152.314558 -33.854688 
L 152.730597 -33.854688 
L 153.146636 -33.854688 
L 153.562675 -33.854688 
L 153.978715 -33.854688 
L 154.394754 -33.854688 
L 154.810793 -33.854688 
L 155.226832 -33.854688 
L 155.642872 -33.854688 
L 156.058911 -33.854688 
L 156.47495 -33.854688 
L 156.890989 -33.854688 
L 157.307029 -33.854688 
L 157.723068 -33.854688 
L 158.139107 -33.854688 
L 158.555146 -33.854688 
L 158.971186 -33.854688 
L 159.387225 -33.854688 
L 159.803264 -33.854688 
L 160.219303 -33.854688 
L 160.635343 -33.854688 
L 161.051382 -33.854688 
L 161.467421 -33.854688 
L 161.88346 -33.854688 
L 162.2995 -33.854688 
L 162.715539 -33.854688 
L 163.131578 -33.854688 
L 163.547617 -33.854688 
L 163.963656 -33.854688 
L 164.379696 -33.854688 
L 164.795735 -33.854688 
L 165.211774 -33.854688 
L 165.627813 -33.854688 
L 166.043853 -33.854688 
L 166.459892 -33.854688 
L 166.875931 -33.854688 
L 167.29197 -33.854688 
L 167.70801 -33.854688 
L 168.124049 -33.854688 
L 168.540088 -33.854688 
L 168.956127 -33.854688 
L 169.372167 -33.854688 
L 169.788206 -33.854688 
L 170.204245 -33.854688 
L 170.620284 -33.854688 
L 171.036324 -33.854688 
L 171.452363 -33.854688 
L 171.868402 -33.854688 
L 172.284441 -33.854688 
L 172.700481 -33.854688 
L 173.11652 -33.854688 
L 173.532559 -33.854688 
L 173.948598 -33.854688 
L 174.364638 -33.854688 
L 174.780677 -33.854688 
L 175.196716 -33.854688 
L 175.612755 -33.854688 
L 176.028795 -33.854688 
L 176.444834 -33.854688 
L 176.860873 -33.854688 
L 177.276912 -33.854688 
L 177.692952 -33.854688 
L 178.108991 -33.854688 
L 178.52503 -33.854688 
L 178.941069 -33.854688 
L 178.941069 -33.921404 
L 178.941069 -33.921404 
L 178.52503 -33.947825 
L 178.108991 -33.983049 
L 177.692952 -34.029336 
L 177.276912 -34.08928 
L 176.860873 -34.165777 
L 176.444834 -34.261953 
L 176.028795 -34.381056 
L 175.612755 -34.526308 
L 175.196716 -34.700704 
L 174.780677 -34.906785 
L 174.364638 -35.146368 
L 173.948598 -35.420276 
L 173.532559 -35.728062 
L 173.11652 -36.067771 
L 172.700481 -36.435756 
L 172.284441 -36.826579 
L 171.868402 -37.233023 
L 171.452363 -37.646229 
L 171.036324 -38.055962 
L 170.620284 -38.451024 
L 170.204245 -38.819768 
L 169.788206 -39.150718 
L 169.372167 -39.433231 
L 168.956127 -39.658168 
L 168.540088 -39.818524 
L 168.124049 -39.90996 
L 167.70801 -39.931194 
L 167.29197 -39.884233 
L 166.875931 -39.774396 
L 166.459892 -39.610154 
L 166.043853 -39.402776 
L 165.627813 -39.165813 
L 165.211774 -38.914456 
L 164.795735 -38.664811 
L 164.379696 -38.433133 
L 163.963656 -38.235069 
L 163.547617 -38.084952 
L 163.131578 -37.995169 
L 162.715539 -37.975655 
L 162.2995 -38.033499 
L 161.88346 -38.172706 
L 161.467421 -38.394091 
L 161.051382 -38.695333 
L 160.635343 -39.071154 
L 160.219303 -39.513641 
L 159.803264 -40.012683 
L 159.387225 -40.556513 
L 158.971186 -41.132347 
L 158.555146 -41.727079 
L 158.139107 -42.328028 
L 157.723068 -42.92371 
L 157.307029 -43.504583 
L 156.890989 -44.063771 
L 156.47495 -44.597699 
L 156.058911 -45.10663 
L 155.642872 -45.595063 
L 155.226832 -46.07195 
L 154.810793 -46.550727 
L 154.394754 -47.049109 
L 153.978715 -47.588656 
L 153.562675 -48.194081 
L 153.146636 -48.892324 
L 152.730597 -49.711408 
L 152.314558 -50.67911 
L 151.898518 -51.82151 
L 151.482479 -53.161485 
L 151.06644 -54.717236 
L 150.650401 -56.50094 
L 150.234361 -58.517613 
L 149.818322 -60.764282 
L 149.402283 -63.229525 
L 148.986244 -65.893435 
L 148.570204 -68.728021 
L 148.154165 -71.698048 
L 147.738126 -74.762253 
L 147.322087 -77.874887 
L 146.906047 -80.987485 
L 146.490008 -84.050754 
L 146.073969 -87.016479 
L 145.65793 -89.839347 
L 145.24189 -92.478601 
L 144.825851 -94.89945 
L 144.409812 -97.07422 
L 143.993773 -98.983202 
L 143.577733 -100.615207 
L 143.161694 -101.967853 
L 142.745655 -103.047586 
L 142.329616 -103.869457 
L 141.913576 -104.456676 
L 141.497537 -104.839912 
L 141.081498 -105.056362 
L 140.665459 -105.148551 
L 140.249419 -105.162863 
L 139.83338 -105.147815 
L 139.417341 -105.152104 
L 139.001302 -105.222483 
L 138.585262 -105.401579 
L 138.169223 -105.725777 
L 137.753184 -106.223315 
L 137.337145 -106.912762 
L 136.921105 -107.802021 
L 136.505066 -108.887984 
L 136.089027 -110.156911 
L 135.672988 -111.585548 
L 135.256948 -113.142956 
L 134.840909 -114.792915 
L 134.42487 -116.496761 
L 134.008831 -118.216438 
L 133.592791 -119.917542 
L 133.176752 -121.572123 
L 132.760713 -123.161036 
L 132.344674 -124.675672 
L 131.928634 -126.118924 
L 131.512595 -127.505338 
L 131.096556 -128.860424 
L 130.680517 -130.219185 
L 130.264477 -131.623939 
L 129.848438 -133.121597 
L 129.432399 -134.760547 
L 129.01636 -136.58734 
L 128.60032 -138.643366 
L 128.184281 -140.961719 
L 127.768242 -143.564441 
L 127.352203 -146.460279 
L 126.936163 -149.643125 
L 126.520124 -153.091198 
L 126.104085 -156.767049 
L 125.688046 -160.618395 
L 125.272006 -164.579733 
L 124.855967 -168.574669 
L 124.439928 -172.51883 
L 124.023889 -176.323204 
L 123.607849 -179.897722 
L 123.19181 -183.154896 
L 122.775771 -186.013306 
L 122.359732 -188.400769 
L 121.943692 -190.257035 
L 121.527653 -191.535893 
L 121.111614 -192.20661 
L 120.695575 -192.254688 
L 120.279536 -191.681933 
L 119.863496 -190.5059 
L 119.447457 -188.758771 
L 119.031418 -186.485764 
L 118.615379 -183.743154 
L 118.199339 -180.596004 
L 117.7833 -177.11568 
L 117.367261 -173.377226 
L 116.951222 -169.456666 
L 116.535182 -165.428287 
L 116.119143 -161.361996 
L 115.703104 -157.320799 
L 115.287065 -153.358517 
L 114.871025 -149.517826 
L 114.454986 -145.828734 
L 114.038947 -142.307612 
L 113.622908 -138.95685 
L 113.206868 -135.765237 
L 112.790829 -132.709069 
L 112.37479 -129.753986 
L 111.958751 -126.857453 
L 111.542711 -123.971774 
L 111.126672 -121.04744 
L 110.710633 -118.036623 
L 110.294594 -114.896565 
L 109.878554 -111.592637 
L 109.462515 -108.100841 
L 109.046476 -104.409593 
L 108.630437 -100.520662 
L 108.214397 -96.449208 
L 107.798358 -92.222941 
L 107.382319 -87.88049 
L 106.96628 -83.469126 
L 106.55024 -79.042022 
L 106.134201 -74.655279 
L 105.718162 -70.364928 
L 105.302123 -66.224123 
L 104.886083 -62.280697 
L 104.470044 -58.575226 
L 104.054005 -55.139664 
L 103.637966 -51.996609 
L 103.221926 -49.159154 
L 102.805887 -46.63128 
L 102.389848 -44.408685 
L 101.973809 -42.479956 
L 101.557769 -40.827931 
L 101.14173 -39.431172 
L 100.725691 -38.265411 
L 100.309652 -37.304898 
L 99.893612 -36.523595 
L 99.477573 -35.896148 
L 99.061534 -35.398652 
L 98.645495 -35.009187 
L 98.229455 -34.708146 
L 97.813416 -34.47839 
L 97.397377 -34.305249 
L 96.981338 -34.176414 
L 96.565298 -34.081755 
L 96.149259 -34.01308 
z
" style="stroke: #2ca02c"/>
    </defs>
    <g clip-path="url(#pe6f5790825)">
     <use xlink:href="#mddbae05a1c" x="0" y="220.973125" style="fill: #2ca02c; fill-opacity: 0.05; stroke: #2ca02c"/>
    </g>
   </g>
   <g id="PolyCollection_4">
    <defs>
     <path id="m0e0bc1d0b5" d="M 54.85946 -33.870641 
L 54.85946 -33.854688 
L 55.751648 -33.854688 
L 56.643837 -33.854688 
L 57.536025 -33.854688 
L 58.428213 -33.854688 
L 59.320401 -33.854688 
L 60.21259 -33.854688 
L 61.104778 -33.854688 
L 61.996966 -33.854688 
L 62.889154 -33.854688 
L 63.781342 -33.854688 
L 64.673531 -33.854688 
L 65.565719 -33.854688 
L 66.457907 -33.854688 
L 67.350095 -33.854688 
L 68.242283 -33.854688 
L 69.134472 -33.854688 
L 70.02666 -33.854688 
L 70.918848 -33.854688 
L 71.811036 -33.854688 
L 72.703225 -33.854688 
L 73.595413 -33.854688 
L 74.487601 -33.854688 
L 75.379789 -33.854688 
L 76.271977 -33.854688 
L 77.164166 -33.854688 
L 78.056354 -33.854688 
L 78.948542 -33.854688 
L 79.84073 -33.854688 
L 80.732918 -33.854688 
L 81.625107 -33.854688 
L 82.517295 -33.854688 
L 83.409483 -33.854688 
L 84.301671 -33.854688 
L 85.193859 -33.854688 
L 86.086048 -33.854688 
L 86.978236 -33.854688 
L 87.870424 -33.854688 
L 88.762612 -33.854688 
L 89.654801 -33.854688 
L 90.546989 -33.854688 
L 91.439177 -33.854688 
L 92.331365 -33.854688 
L 93.223553 -33.854688 
L 94.115742 -33.854688 
L 95.00793 -33.854688 
L 95.900118 -33.854688 
L 96.792306 -33.854688 
L 97.684494 -33.854688 
L 98.576683 -33.854688 
L 99.468871 -33.854688 
L 100.361059 -33.854688 
L 101.253247 -33.854688 
L 102.145436 -33.854688 
L 103.037624 -33.854688 
L 103.929812 -33.854688 
L 104.822 -33.854688 
L 105.714188 -33.854688 
L 106.606377 -33.854688 
L 107.498565 -33.854688 
L 108.390753 -33.854688 
L 109.282941 -33.854688 
L 110.175129 -33.854688 
L 111.067318 -33.854688 
L 111.959506 -33.854688 
L 112.851694 -33.854688 
L 113.743882 -33.854688 
L 114.636071 -33.854688 
L 115.528259 -33.854688 
L 116.420447 -33.854688 
L 117.312635 -33.854688 
L 118.204823 -33.854688 
L 119.097012 -33.854688 
L 119.9892 -33.854688 
L 120.881388 -33.854688 
L 121.773576 -33.854688 
L 122.665764 -33.854688 
L 123.557953 -33.854688 
L 124.450141 -33.854688 
L 125.342329 -33.854688 
L 126.234517 -33.854688 
L 127.126706 -33.854688 
L 128.018894 -33.854688 
L 128.911082 -33.854688 
L 129.80327 -33.854688 
L 130.695458 -33.854688 
L 131.587647 -33.854688 
L 132.479835 -33.854688 
L 133.372023 -33.854688 
L 134.264211 -33.854688 
L 135.156399 -33.854688 
L 136.048588 -33.854688 
L 136.940776 -33.854688 
L 137.832964 -33.854688 
L 138.725152 -33.854688 
L 139.617341 -33.854688 
L 140.509529 -33.854688 
L 141.401717 -33.854688 
L 142.293905 -33.854688 
L 143.186093 -33.854688 
L 144.078282 -33.854688 
L 144.97047 -33.854688 
L 145.862658 -33.854688 
L 146.754846 -33.854688 
L 147.647034 -33.854688 
L 148.539223 -33.854688 
L 149.431411 -33.854688 
L 150.323599 -33.854688 
L 151.215787 -33.854688 
L 152.107976 -33.854688 
L 153.000164 -33.854688 
L 153.892352 -33.854688 
L 154.78454 -33.854688 
L 155.676728 -33.854688 
L 156.568917 -33.854688 
L 157.461105 -33.854688 
L 158.353293 -33.854688 
L 159.245481 -33.854688 
L 160.137669 -33.854688 
L 161.029858 -33.854688 
L 161.922046 -33.854688 
L 162.814234 -33.854688 
L 163.706422 -33.854688 
L 164.598611 -33.854688 
L 165.490799 -33.854688 
L 166.382987 -33.854688 
L 167.275175 -33.854688 
L 168.167363 -33.854688 
L 169.059552 -33.854688 
L 169.95174 -33.854688 
L 170.843928 -33.854688 
L 171.736116 -33.854688 
L 172.628304 -33.854688 
L 173.520493 -33.854688 
L 174.412681 -33.854688 
L 175.304869 -33.854688 
L 176.197057 -33.854688 
L 177.089246 -33.854688 
L 177.981434 -33.854688 
L 178.873622 -33.854688 
L 179.76581 -33.854688 
L 180.657998 -33.854688 
L 181.550187 -33.854688 
L 182.442375 -33.854688 
L 183.334563 -33.854688 
L 184.226751 -33.854688 
L 185.118939 -33.854688 
L 186.011128 -33.854688 
L 186.903316 -33.854688 
L 187.795504 -33.854688 
L 188.687692 -33.854688 
L 189.579881 -33.854688 
L 190.472069 -33.854688 
L 191.364257 -33.854688 
L 192.256445 -33.854688 
L 193.148633 -33.854688 
L 194.040822 -33.854688 
L 194.93301 -33.854688 
L 195.825198 -33.854688 
L 196.717386 -33.854688 
L 197.609574 -33.854688 
L 198.501763 -33.854688 
L 199.393951 -33.854688 
L 200.286139 -33.854688 
L 201.178327 -33.854688 
L 202.070516 -33.854688 
L 202.962704 -33.854688 
L 203.854892 -33.854688 
L 204.74708 -33.854688 
L 205.639268 -33.854688 
L 206.531457 -33.854688 
L 207.423645 -33.854688 
L 208.315833 -33.854688 
L 209.208021 -33.854688 
L 210.100209 -33.854688 
L 210.992398 -33.854688 
L 211.884586 -33.854688 
L 212.776774 -33.854688 
L 213.668962 -33.854688 
L 214.56115 -33.854688 
L 215.453339 -33.854688 
L 216.345527 -33.854688 
L 217.237715 -33.854688 
L 218.129903 -33.854688 
L 219.022092 -33.854688 
L 219.91428 -33.854688 
L 220.806468 -33.854688 
L 221.698656 -33.854688 
L 222.590844 -33.854688 
L 223.483033 -33.854688 
L 224.375221 -33.854688 
L 225.267409 -33.854688 
L 226.159597 -33.854688 
L 227.051785 -33.854688 
L 227.943974 -33.854688 
L 228.836162 -33.854688 
L 229.72835 -33.854688 
L 230.620538 -33.854688 
L 231.512727 -33.854688 
L 232.404915 -33.854688 
L 232.404915 -33.870828 
L 232.404915 -33.870828 
L 231.512727 -33.878625 
L 230.620538 -33.889601 
L 229.72835 -33.904774 
L 228.836162 -33.925371 
L 227.943974 -33.952837 
L 227.051785 -33.988815 
L 226.159597 -34.035123 
L 225.267409 -34.093704 
L 224.375221 -34.166563 
L 223.483033 -34.255689 
L 222.590844 -34.362972 
L 221.698656 -34.490119 
L 220.806468 -34.638584 
L 219.91428 -34.809516 
L 219.022092 -35.003728 
L 218.129903 -35.221701 
L 217.237715 -35.46361 
L 216.345527 -35.729371 
L 215.453339 -36.0187 
L 214.56115 -36.33117 
L 213.668962 -36.666263 
L 212.776774 -37.023403 
L 211.884586 -37.401969 
L 210.992398 -37.801307 
L 210.100209 -38.220732 
L 209.208021 -38.65954 
L 208.315833 -39.117043 
L 207.423645 -39.592628 
L 206.531457 -40.085834 
L 205.639268 -40.596444 
L 204.74708 -41.124564 
L 203.854892 -41.670671 
L 202.962704 -42.235595 
L 202.070516 -42.820443 
L 201.178327 -43.426429 
L 200.286139 -44.054647 
L 199.393951 -44.705791 
L 198.501763 -45.379869 
L 197.609574 -46.075946 
L 196.717386 -46.791956 
L 195.825198 -47.524616 
L 194.93301 -48.26944 
L 194.040822 -49.020888 
L 193.148633 -49.772588 
L 192.256445 -50.517647 
L 191.364257 -51.24899 
L 190.472069 -51.959711 
L 189.579881 -52.643405 
L 188.687692 -53.294478 
L 187.795504 -53.908411 
L 186.903316 -54.481988 
L 186.011128 -55.013496 
L 185.118939 -55.502867 
L 184.226751 -55.951794 
L 183.334563 -56.363772 
L 182.442375 -56.74408 
L 181.550187 -57.099684 
L 180.657998 -57.43906 
L 179.76581 -57.771951 
L 178.873622 -58.109075 
L 177.981434 -58.461802 
L 177.089246 -58.841848 
L 176.197057 -59.260968 
L 175.304869 -59.730687 
L 174.412681 -60.262043 
L 173.520493 -60.86533 
L 172.628304 -61.549805 
L 171.736116 -62.323353 
L 170.843928 -63.192091 
L 169.95174 -64.159918 
L 169.059552 -65.228052 
L 168.167363 -66.394593 
L 167.275175 -67.65416 
L 166.382987 -68.997685 
L 165.490799 -70.412371 
L 164.598611 -71.881866 
L 163.706422 -73.386649 
L 162.814234 -74.904603 
L 161.922046 -76.411763 
L 161.029858 -77.883186 
L 160.137669 -79.293924 
L 159.245481 -80.620054 
L 158.353293 -81.839734 
L 157.461105 -82.934264 
L 156.568917 -83.889082 
L 155.676728 -84.694653 
L 154.78454 -85.347166 
L 153.892352 -85.848952 
L 153.000164 -86.208544 
L 152.107976 -86.440308 
L 151.215787 -86.563616 
L 150.323599 -86.601574 
L 149.431411 -86.579397 
L 148.539223 -86.522544 
L 147.647034 -86.454814 
L 146.754846 -86.396584 
L 145.862658 -86.363411 
L 144.97047 -86.365149 
L 144.078282 -86.405693 
L 143.186093 -86.483381 
L 142.293905 -86.591998 
L 141.401717 -86.722233 
L 140.509529 -86.863411 
L 139.617341 -87.005252 
L 138.725152 -87.139437 
L 137.832964 -87.260792 
L 136.940776 -87.367945 
L 136.048588 -87.463427 
L 135.156399 -87.553232 
L 134.264211 -87.645953 
L 133.372023 -87.75165 
L 132.479835 -87.880622 
L 131.587647 -88.042269 
L 130.695458 -88.24416 
L 129.80327 -88.491404 
L 128.911082 -88.78634 
L 128.018894 -89.128517 
L 127.126706 -89.514881 
L 126.234517 -89.940089 
L 125.342329 -90.396841 
L 124.450141 -90.87616 
L 123.557953 -91.367571 
L 122.665764 -91.859146 
L 121.773576 -92.337448 
L 120.881388 -92.787388 
L 119.9892 -93.192066 
L 119.097012 -93.53263 
L 118.204823 -93.788229 
L 117.312635 -93.936111 
L 116.420447 -93.951912 
L 115.528259 -93.810174 
L 114.636071 -93.485126 
L 113.743882 -92.951727 
L 112.851694 -92.186947 
L 111.959506 -91.171229 
L 111.067318 -89.890042 
L 110.175129 -88.335389 
L 109.282941 -86.507129 
L 108.390753 -84.413955 
L 107.498565 -82.07388 
L 106.606377 -79.514134 
L 105.714188 -76.770418 
L 104.822 -73.88553 
L 103.929812 -70.907454 
L 103.037624 -67.887051 
L 102.145436 -64.875553 
L 101.253247 -61.922069 
L 100.361059 -59.071311 
L 99.468871 -56.361728 
L 98.576683 -53.824181 
L 97.684494 -51.481219 
L 96.792306 -49.346978 
L 95.900118 -47.427628 
L 95.00793 -45.722278 
L 94.115742 -44.224188 
L 93.223553 -42.922134 
L 92.331365 -41.801791 
L 91.439177 -40.846998 
L 90.546989 -40.040831 
L 89.654801 -39.366411 
L 88.762612 -38.80747 
L 87.870424 -38.348667 
L 86.978236 -37.97572 
L 86.086048 -37.675408 
L 85.193859 -37.435499 
L 84.301671 -37.244656 
L 83.409483 -37.092365 
L 82.517295 -36.968902 
L 81.625107 -36.865353 
L 80.732918 -36.773667 
L 79.84073 -36.686756 
L 78.948542 -36.598595 
L 78.056354 -36.504325 
L 77.164166 -36.400329 
L 76.271977 -36.284276 
L 75.379789 -36.155117 
L 74.487601 -36.013017 
L 73.595413 -35.859246 
L 72.703225 -35.696005 
L 71.811036 -35.526213 
L 70.918848 -35.353264 
L 70.02666 -35.180761 
L 69.134472 -35.012267 
L 68.242283 -34.85107 
L 67.350095 -34.699992 
L 66.457907 -34.561253 
L 65.565719 -34.43639 
L 64.673531 -34.326242 
L 63.781342 -34.230987 
L 62.889154 -34.150221 
L 61.996966 -34.083069 
L 61.104778 -34.028316 
L 60.21259 -33.98453 
L 59.320401 -33.950185 
L 58.428213 -33.923757 
L 57.536025 -33.903808 
L 56.643837 -33.889033 
L 55.751648 -33.878296 
L 54.85946 -33.870641 
z
" style="stroke: #d62728"/>
    </defs>
    <g clip-path="url(#pe6f5790825)">
     <use xlink:href="#m0e0bc1d0b5" x="0" y="220.973125" style="fill: #d62728; fill-opacity: 0.05; stroke: #d62728"/>
    </g>
   </g>
   <g id="matplotlib.axis_1">
    <g id="xtick_1">
     <g id="line2d_1">
      <defs>
       <path id="ma4d00c7142" d="M 0 0 
L 0 3.5 
" style="stroke: #000000; stroke-width: 0.8"/>
      </defs>
      <g>
       <use xlink:href="#ma4d00c7142" x="47.823709" y="187.118437" style="stroke: #000000; stroke-width: 0.8"/>
      </g>
     </g>
     <g id="text_1">
      <!-- 100 -->
      <g transform="translate(41.143084 199.437344) scale(0.07 -0.07)">
       <defs>
        <path id="DejaVuSans-31" d="M 794 531 
L 1825 531 
L 1825 4091 
L 703 3866 
L 703 4441 
L 1819 4666 
L 2450 4666 
L 2450 531 
L 3481 531 
L 3481 0 
L 794 0 
L 794 531 
z
" transform="scale(0.015625)"/>
        <path id="DejaVuSans-30" d="M 2034 4250 
Q 1547 4250 1301 3770 
Q 1056 3291 1056 2328 
Q 1056 1369 1301 889 
Q 1547 409 2034 409 
Q 2525 409 2770 889 
Q 3016 1369 3016 2328 
Q 3016 3291 2770 3770 
Q 2525 4250 2034 4250 
z
M 2034 4750 
Q 2819 4750 3233 4129 
Q 3647 3509 3647 2328 
Q 3647 1150 3233 529 
Q 2819 -91 2034 -91 
Q 1250 -91 836 529 
Q 422 1150 422 2328 
Q 422 3509 836 4129 
Q 1250 4750 2034 4750 
z
" transform="scale(0.015625)"/>
       </defs>
       <use xlink:href="#DejaVuSans-31"/>
       <use xlink:href="#DejaVuSans-30" x="63.623047"/>
       <use xlink:href="#DejaVuSans-30" x="127.246094"/>
      </g>
     </g>
    </g>
    <g id="xtick_2">
     <g id="line2d_2">
      <g>
       <use xlink:href="#ma4d00c7142" x="80.207168" y="187.118437" style="stroke: #000000; stroke-width: 0.8"/>
      </g>
     </g>
     <g id="text_2">
      <!-- 200 -->
      <g transform="translate(73.526543 199.437344) scale(0.07 -0.07)">
       <defs>
        <path id="DejaVuSans-32" d="M 1228 531 
L 3431 531 
L 3431 0 
L 469 0 
L 469 531 
Q 828 903 1448 1529 
Q 2069 2156 2228 2338 
Q 2531 2678 2651 2914 
Q 2772 3150 2772 3378 
Q 2772 3750 2511 3984 
Q 2250 4219 1831 4219 
Q 1534 4219 1204 4116 
Q 875 4013 500 3803 
L 500 4441 
Q 881 4594 1212 4672 
Q 1544 4750 1819 4750 
Q 2544 4750 2975 4387 
Q 3406 4025 3406 3419 
Q 3406 3131 3298 2873 
Q 3191 2616 2906 2266 
Q 2828 2175 2409 1742 
Q 1991 1309 1228 531 
z
" transform="scale(0.015625)"/>
       </defs>
       <use xlink:href="#DejaVuSans-32"/>
       <use xlink:href="#DejaVuSans-30" x="63.623047"/>
       <use xlink:href="#DejaVuSans-30" x="127.246094"/>
      </g>
     </g>
    </g>
    <g id="xtick_3">
     <g id="line2d_3">
      <g>
       <use xlink:href="#ma4d00c7142" x="112.590626" y="187.118437" style="stroke: #000000; stroke-width: 0.8"/>
      </g>
     </g>
     <g id="text_3">
      <!-- 300 -->
      <g transform="translate(105.910001 199.437344) scale(0.07 -0.07)">
       <defs>
        <path id="DejaVuSans-33" d="M 2597 2516 
Q 3050 2419 3304 2112 
Q 3559 1806 3559 1356 
Q 3559 666 3084 287 
Q 2609 -91 1734 -91 
Q 1441 -91 1130 -33 
Q 819 25 488 141 
L 488 750 
Q 750 597 1062 519 
Q 1375 441 1716 441 
Q 2309 441 2620 675 
Q 2931 909 2931 1356 
Q 2931 1769 2642 2001 
Q 2353 2234 1838 2234 
L 1294 2234 
L 1294 2753 
L 1863 2753 
Q 2328 2753 2575 2939 
Q 2822 3125 2822 3475 
Q 2822 3834 2567 4026 
Q 2313 4219 1838 4219 
Q 1578 4219 1281 4162 
Q 984 4106 628 3988 
L 628 4550 
Q 988 4650 1302 4700 
Q 1616 4750 1894 4750 
Q 2613 4750 3031 4423 
Q 3450 4097 3450 3541 
Q 3450 3153 3228 2886 
Q 3006 2619 2597 2516 
z
" transform="scale(0.015625)"/>
       </defs>
       <use xlink:href="#DejaVuSans-33"/>
       <use xlink:href="#DejaVuSans-30" x="63.623047"/>
       <use xlink:href="#DejaVuSans-30" x="127.246094"/>
      </g>
     </g>
    </g>
    <g id="xtick_4">
     <g id="line2d_4">
      <g>
       <use xlink:href="#ma4d00c7142" x="144.974085" y="187.118437" style="stroke: #000000; stroke-width: 0.8"/>
      </g>
     </g>
     <g id="text_4">
      <!-- 400 -->
      <g transform="translate(138.29346 199.437344) scale(0.07 -0.07)">
       <defs>
        <path id="DejaVuSans-34" d="M 2419 4116 
L 825 1625 
L 2419 1625 
L 2419 4116 
z
M 2253 4666 
L 3047 4666 
L 3047 1625 
L 3713 1625 
L 3713 1100 
L 3047 1100 
L 3047 0 
L 2419 0 
L 2419 1100 
L 313 1100 
L 313 1709 
L 2253 4666 
z
" transform="scale(0.015625)"/>
       </defs>
       <use xlink:href="#DejaVuSans-34"/>
       <use xlink:href="#DejaVuSans-30" x="63.623047"/>
       <use xlink:href="#DejaVuSans-30" x="127.246094"/>
      </g>
     </g>
    </g>
    <g id="xtick_5">
     <g id="line2d_5">
      <g>
       <use xlink:href="#ma4d00c7142" x="177.357543" y="187.118437" style="stroke: #000000; stroke-width: 0.8"/>
      </g>
     </g>
     <g id="text_5">
      <!-- 500 -->
      <g transform="translate(170.676918 199.437344) scale(0.07 -0.07)">
       <defs>
        <path id="DejaVuSans-35" d="M 691 4666 
L 3169 4666 
L 3169 4134 
L 1269 4134 
L 1269 2991 
Q 1406 3038 1543 3061 
Q 1681 3084 1819 3084 
Q 2600 3084 3056 2656 
Q 3513 2228 3513 1497 
Q 3513 744 3044 326 
Q 2575 -91 1722 -91 
Q 1428 -91 1123 -41 
Q 819 9 494 109 
L 494 744 
Q 775 591 1075 516 
Q 1375 441 1709 441 
Q 2250 441 2565 725 
Q 2881 1009 2881 1497 
Q 2881 1984 2565 2268 
Q 2250 2553 1709 2553 
Q 1456 2553 1204 2497 
Q 953 2441 691 2322 
L 691 4666 
z
" transform="scale(0.015625)"/>
       </defs>
       <use xlink:href="#DejaVuSans-35"/>
       <use xlink:href="#DejaVuSans-30" x="63.623047"/>
       <use xlink:href="#DejaVuSans-30" x="127.246094"/>
      </g>
     </g>
    </g>
    <g id="xtick_6">
     <g id="line2d_6">
      <g>
       <use xlink:href="#ma4d00c7142" x="209.741002" y="187.118437" style="stroke: #000000; stroke-width: 0.8"/>
      </g>
     </g>
     <g id="text_6">
      <!-- 600 -->
      <g transform="translate(203.060377 199.437344) scale(0.07 -0.07)">
       <defs>
        <path id="DejaVuSans-36" d="M 2113 2584 
Q 1688 2584 1439 2293 
Q 1191 2003 1191 1497 
Q 1191 994 1439 701 
Q 1688 409 2113 409 
Q 2538 409 2786 701 
Q 3034 994 3034 1497 
Q 3034 2003 2786 2293 
Q 2538 2584 2113 2584 
z
M 3366 4563 
L 3366 3988 
Q 3128 4100 2886 4159 
Q 2644 4219 2406 4219 
Q 1781 4219 1451 3797 
Q 1122 3375 1075 2522 
Q 1259 2794 1537 2939 
Q 1816 3084 2150 3084 
Q 2853 3084 3261 2657 
Q 3669 2231 3669 1497 
Q 3669 778 3244 343 
Q 2819 -91 2113 -91 
Q 1303 -91 875 529 
Q 447 1150 447 2328 
Q 447 3434 972 4092 
Q 1497 4750 2381 4750 
Q 2619 4750 2861 4703 
Q 3103 4656 3366 4563 
z
" transform="scale(0.015625)"/>
       </defs>
       <use xlink:href="#DejaVuSans-36"/>
       <use xlink:href="#DejaVuSans-30" x="63.623047"/>
       <use xlink:href="#DejaVuSans-30" x="127.246094"/>
      </g>
     </g>
    </g>
    <g id="text_7">
     <!-- FIA ($kJ.mol^{-1}$) -->
     <g transform="translate(115.472188 212.093125) scale(0.08 -0.08)">
      <defs>
       <path id="DejaVuSans-46" d="M 628 4666 
L 3309 4666 
L 3309 4134 
L 1259 4134 
L 1259 2759 
L 3109 2759 
L 3109 2228 
L 1259 2228 
L 1259 0 
L 628 0 
L 628 4666 
z
" transform="scale(0.015625)"/>
       <path id="DejaVuSans-49" d="M 628 4666 
L 1259 4666 
L 1259 0 
L 628 0 
L 628 4666 
z
" transform="scale(0.015625)"/>
       <path id="DejaVuSans-41" d="M 2188 4044 
L 1331 1722 
L 3047 1722 
L 2188 4044 
z
M 1831 4666 
L 2547 4666 
L 4325 0 
L 3669 0 
L 3244 1197 
L 1141 1197 
L 716 0 
L 50 0 
L 1831 4666 
z
" transform="scale(0.015625)"/>
       <path id="DejaVuSans-20" transform="scale(0.015625)"/>
       <path id="DejaVuSans-28" d="M 1984 4856 
Q 1566 4138 1362 3434 
Q 1159 2731 1159 2009 
Q 1159 1288 1364 580 
Q 1569 -128 1984 -844 
L 1484 -844 
Q 1016 -109 783 600 
Q 550 1309 550 2009 
Q 550 2706 781 3412 
Q 1013 4119 1484 4856 
L 1984 4856 
z
" transform="scale(0.015625)"/>
       <path id="DejaVuSans-Oblique-6b" d="M 1172 4863 
L 1747 4863 
L 1197 2028 
L 3169 3500 
L 3916 3500 
L 1716 1825 
L 3322 0 
L 2625 0 
L 1131 1709 
L 800 0 
L 225 0 
L 1172 4863 
z
" transform="scale(0.015625)"/>
       <path id="DejaVuSans-Oblique-4a" d="M 1069 4666 
L 1703 4666 
L 856 325 
Q 691 -522 298 -901 
Q -94 -1281 -800 -1281 
L -1050 -1281 
L -947 -750 
L -750 -750 
Q -328 -750 -109 -509 
Q 109 -269 225 325 
L 1069 4666 
z
" transform="scale(0.015625)"/>
       <path id="DejaVuSans-2e" d="M 684 794 
L 1344 794 
L 1344 0 
L 684 0 
L 684 794 
z
" transform="scale(0.015625)"/>
       <path id="DejaVuSans-Oblique-6d" d="M 5747 2113 
L 5338 0 
L 4763 0 
L 5166 2094 
Q 5191 2228 5203 2325 
Q 5216 2422 5216 2491 
Q 5216 2772 5059 2928 
Q 4903 3084 4622 3084 
Q 4203 3084 3875 2770 
Q 3547 2456 3450 1953 
L 3066 0 
L 2491 0 
L 2900 2094 
Q 2925 2209 2937 2307 
Q 2950 2406 2950 2484 
Q 2950 2769 2794 2926 
Q 2638 3084 2363 3084 
Q 1938 3084 1609 2770 
Q 1281 2456 1184 1953 
L 800 0 
L 225 0 
L 909 3500 
L 1484 3500 
L 1375 2956 
Q 1609 3263 1923 3423 
Q 2238 3584 2597 3584 
Q 2978 3584 3223 3384 
Q 3469 3184 3519 2828 
Q 3781 3197 4126 3390 
Q 4472 3584 4856 3584 
Q 5306 3584 5551 3325 
Q 5797 3066 5797 2591 
Q 5797 2488 5784 2364 
Q 5772 2241 5747 2113 
z
" transform="scale(0.015625)"/>
       <path id="DejaVuSans-Oblique-6f" d="M 1625 -91 
Q 1009 -91 651 289 
Q 294 669 294 1325 
Q 294 1706 417 2101 
Q 541 2497 738 2766 
Q 1047 3184 1428 3384 
Q 1809 3584 2291 3584 
Q 2888 3584 3255 3212 
Q 3622 2841 3622 2241 
Q 3622 1825 3500 1412 
Q 3378 1000 3181 728 
Q 2875 309 2494 109 
Q 2113 -91 1625 -91 
z
M 891 1344 
Q 891 869 1089 633 
Q 1288 397 1691 397 
Q 2269 397 2648 901 
Q 3028 1406 3028 2181 
Q 3028 2634 2825 2865 
Q 2622 3097 2228 3097 
Q 1903 3097 1650 2945 
Q 1397 2794 1197 2484 
Q 1050 2253 970 1956 
Q 891 1659 891 1344 
z
" transform="scale(0.015625)"/>
       <path id="DejaVuSans-Oblique-6c" d="M 1172 4863 
L 1747 4863 
L 800 0 
L 225 0 
L 1172 4863 
z
" transform="scale(0.015625)"/>
       <path id="DejaVuSans-2212" d="M 678 2272 
L 4684 2272 
L 4684 1741 
L 678 1741 
L 678 2272 
z
" transform="scale(0.015625)"/>
       <path id="DejaVuSans-29" d="M 513 4856 
L 1013 4856 
Q 1481 4119 1714 3412 
Q 1947 2706 1947 2009 
Q 1947 1309 1714 600 
Q 1481 -109 1013 -844 
L 513 -844 
Q 928 -128 1133 580 
Q 1338 1288 1338 2009 
Q 1338 2731 1133 3434 
Q 928 4138 513 4856 
z
" transform="scale(0.015625)"/>
      </defs>
      <use xlink:href="#DejaVuSans-46" transform="translate(0 0.684375)"/>
      <use xlink:href="#DejaVuSans-49" transform="translate(57.519531 0.684375)"/>
      <use xlink:href="#DejaVuSans-41" transform="translate(87.011719 0.684375)"/>
      <use xlink:href="#DejaVuSans-20" transform="translate(155.419922 0.684375)"/>
      <use xlink:href="#DejaVuSans-28" transform="translate(187.207031 0.684375)"/>
      <use xlink:href="#DejaVuSans-Oblique-6b" transform="translate(226.220703 0.684375)"/>
      <use xlink:href="#DejaVuSans-Oblique-4a" transform="translate(284.130859 0.684375)"/>
      <use xlink:href="#DejaVuSans-2e" transform="translate(313.623047 0.684375)"/>
      <use xlink:href="#DejaVuSans-Oblique-6d" transform="translate(364.892578 0.684375)"/>
      <use xlink:href="#DejaVuSans-Oblique-6f" transform="translate(462.304688 0.684375)"/>
      <use xlink:href="#DejaVuSans-Oblique-6c" transform="translate(523.486328 0.684375)"/>
      <use xlink:href="#DejaVuSans-2212" transform="translate(558.71724 38.965625) scale(0.7)"/>
      <use xlink:href="#DejaVuSans-31" transform="translate(617.369583 38.965625) scale(0.7)"/>
      <use xlink:href="#DejaVuSans-29" transform="translate(664.640091 0.684375)"/>
     </g>
    </g>
   </g>
   <g id="matplotlib.axis_2">
    <g id="ytick_1">
     <g id="line2d_7">
      <defs>
       <path id="mdd814c7467" d="M 0 0 
L -3.5 0 
" style="stroke: #000000; stroke-width: 0.8"/>
      </defs>
      <g>
       <use xlink:href="#mdd814c7467" x="45.982188" y="187.118437" style="stroke: #000000; stroke-width: 0.8"/>
      </g>
     </g>
     <g id="text_8">
      <!-- 0.000 -->
      <g transform="translate(18.9425 189.777891) scale(0.07 -0.07)">
       <use xlink:href="#DejaVuSans-30"/>
       <use xlink:href="#DejaVuSans-2e" x="63.623047"/>
       <use xlink:href="#DejaVuSans-30" x="95.410156"/>
       <use xlink:href="#DejaVuSans-30" x="159.033203"/>
       <use xlink:href="#DejaVuSans-30" x="222.65625"/>
      </g>
     </g>
    </g>
    <g id="ytick_2">
     <g id="line2d_8">
      <g>
       <use xlink:href="#mdd814c7467" x="45.982188" y="159.818041" style="stroke: #000000; stroke-width: 0.8"/>
      </g>
     </g>
     <g id="text_9">
      <!-- 0.002 -->
      <g transform="translate(18.9425 162.477494) scale(0.07 -0.07)">
       <use xlink:href="#DejaVuSans-30"/>
       <use xlink:href="#DejaVuSans-2e" x="63.623047"/>
       <use xlink:href="#DejaVuSans-30" x="95.410156"/>
       <use xlink:href="#DejaVuSans-30" x="159.033203"/>
       <use xlink:href="#DejaVuSans-32" x="222.65625"/>
      </g>
     </g>
    </g>
    <g id="ytick_3">
     <g id="line2d_9">
      <g>
       <use xlink:href="#mdd814c7467" x="45.982188" y="132.517644" style="stroke: #000000; stroke-width: 0.8"/>
      </g>
     </g>
     <g id="text_10">
      <!-- 0.004 -->
      <g transform="translate(18.9425 135.177097) scale(0.07 -0.07)">
       <use xlink:href="#DejaVuSans-30"/>
       <use xlink:href="#DejaVuSans-2e" x="63.623047"/>
       <use xlink:href="#DejaVuSans-30" x="95.410156"/>
       <use xlink:href="#DejaVuSans-30" x="159.033203"/>
       <use xlink:href="#DejaVuSans-34" x="222.65625"/>
      </g>
     </g>
    </g>
    <g id="ytick_4">
     <g id="line2d_10">
      <g>
       <use xlink:href="#mdd814c7467" x="45.982188" y="105.217247" style="stroke: #000000; stroke-width: 0.8"/>
      </g>
     </g>
     <g id="text_11">
      <!-- 0.006 -->
      <g transform="translate(18.9425 107.8767) scale(0.07 -0.07)">
       <use xlink:href="#DejaVuSans-30"/>
       <use xlink:href="#DejaVuSans-2e" x="63.623047"/>
       <use xlink:href="#DejaVuSans-30" x="95.410156"/>
       <use xlink:href="#DejaVuSans-30" x="159.033203"/>
       <use xlink:href="#DejaVuSans-36" x="222.65625"/>
      </g>
     </g>
    </g>
    <g id="ytick_5">
     <g id="line2d_11">
      <g>
       <use xlink:href="#mdd814c7467" x="45.982188" y="77.91685" style="stroke: #000000; stroke-width: 0.8"/>
      </g>
     </g>
     <g id="text_12">
      <!-- 0.008 -->
      <g transform="translate(18.9425 80.576303) scale(0.07 -0.07)">
       <defs>
        <path id="DejaVuSans-38" d="M 2034 2216 
Q 1584 2216 1326 1975 
Q 1069 1734 1069 1313 
Q 1069 891 1326 650 
Q 1584 409 2034 409 
Q 2484 409 2743 651 
Q 3003 894 3003 1313 
Q 3003 1734 2745 1975 
Q 2488 2216 2034 2216 
z
M 1403 2484 
Q 997 2584 770 2862 
Q 544 3141 544 3541 
Q 544 4100 942 4425 
Q 1341 4750 2034 4750 
Q 2731 4750 3128 4425 
Q 3525 4100 3525 3541 
Q 3525 3141 3298 2862 
Q 3072 2584 2669 2484 
Q 3125 2378 3379 2068 
Q 3634 1759 3634 1313 
Q 3634 634 3220 271 
Q 2806 -91 2034 -91 
Q 1263 -91 848 271 
Q 434 634 434 1313 
Q 434 1759 690 2068 
Q 947 2378 1403 2484 
z
M 1172 3481 
Q 1172 3119 1398 2916 
Q 1625 2713 2034 2713 
Q 2441 2713 2670 2916 
Q 2900 3119 2900 3481 
Q 2900 3844 2670 4047 
Q 2441 4250 2034 4250 
Q 1625 4250 1398 4047 
Q 1172 3844 1172 3481 
z
" transform="scale(0.015625)"/>
       </defs>
       <use xlink:href="#DejaVuSans-30"/>
       <use xlink:href="#DejaVuSans-2e" x="63.623047"/>
       <use xlink:href="#DejaVuSans-30" x="95.410156"/>
       <use xlink:href="#DejaVuSans-30" x="159.033203"/>
       <use xlink:href="#DejaVuSans-38" x="222.65625"/>
      </g>
     </g>
    </g>
    <g id="ytick_6">
     <g id="line2d_12">
      <g>
       <use xlink:href="#mdd814c7467" x="45.982188" y="50.616453" style="stroke: #000000; stroke-width: 0.8"/>
      </g>
     </g>
     <g id="text_13">
      <!-- 0.010 -->
      <g transform="translate(18.9425 53.275906) scale(0.07 -0.07)">
       <use xlink:href="#DejaVuSans-30"/>
       <use xlink:href="#DejaVuSans-2e" x="63.623047"/>
       <use xlink:href="#DejaVuSans-30" x="95.410156"/>
       <use xlink:href="#DejaVuSans-31" x="159.033203"/>
       <use xlink:href="#DejaVuSans-30" x="222.65625"/>
      </g>
     </g>
    </g>
    <g id="ytick_7">
     <g id="line2d_13">
      <g>
       <use xlink:href="#mdd814c7467" x="45.982188" y="23.316056" style="stroke: #000000; stroke-width: 0.8"/>
      </g>
     </g>
     <g id="text_14">
      <!-- 0.012 -->
      <g transform="translate(18.9425 25.975509) scale(0.07 -0.07)">
       <use xlink:href="#DejaVuSans-30"/>
       <use xlink:href="#DejaVuSans-2e" x="63.623047"/>
       <use xlink:href="#DejaVuSans-30" x="95.410156"/>
       <use xlink:href="#DejaVuSans-31" x="159.033203"/>
       <use xlink:href="#DejaVuSans-32" x="222.65625"/>
      </g>
     </g>
    </g>
    <g id="text_15">
     <!-- Density -->
     <g transform="translate(13.27875 119.165312) rotate(-90) scale(0.08 -0.08)">
      <defs>
       <path id="DejaVuSans-44" d="M 1259 4147 
L 1259 519 
L 2022 519 
Q 2988 519 3436 956 
Q 3884 1394 3884 2338 
Q 3884 3275 3436 3711 
Q 2988 4147 2022 4147 
L 1259 4147 
z
M 628 4666 
L 1925 4666 
Q 3281 4666 3915 4102 
Q 4550 3538 4550 2338 
Q 4550 1131 3912 565 
Q 3275 0 1925 0 
L 628 0 
L 628 4666 
z
" transform="scale(0.015625)"/>
       <path id="DejaVuSans-65" d="M 3597 1894 
L 3597 1613 
L 953 1613 
Q 991 1019 1311 708 
Q 1631 397 2203 397 
Q 2534 397 2845 478 
Q 3156 559 3463 722 
L 3463 178 
Q 3153 47 2828 -22 
Q 2503 -91 2169 -91 
Q 1331 -91 842 396 
Q 353 884 353 1716 
Q 353 2575 817 3079 
Q 1281 3584 2069 3584 
Q 2775 3584 3186 3129 
Q 3597 2675 3597 1894 
z
M 3022 2063 
Q 3016 2534 2758 2815 
Q 2500 3097 2075 3097 
Q 1594 3097 1305 2825 
Q 1016 2553 972 2059 
L 3022 2063 
z
" transform="scale(0.015625)"/>
       <path id="DejaVuSans-6e" d="M 3513 2113 
L 3513 0 
L 2938 0 
L 2938 2094 
Q 2938 2591 2744 2837 
Q 2550 3084 2163 3084 
Q 1697 3084 1428 2787 
Q 1159 2491 1159 1978 
L 1159 0 
L 581 0 
L 581 3500 
L 1159 3500 
L 1159 2956 
Q 1366 3272 1645 3428 
Q 1925 3584 2291 3584 
Q 2894 3584 3203 3211 
Q 3513 2838 3513 2113 
z
" transform="scale(0.015625)"/>
       <path id="DejaVuSans-73" d="M 2834 3397 
L 2834 2853 
Q 2591 2978 2328 3040 
Q 2066 3103 1784 3103 
Q 1356 3103 1142 2972 
Q 928 2841 928 2578 
Q 928 2378 1081 2264 
Q 1234 2150 1697 2047 
L 1894 2003 
Q 2506 1872 2764 1633 
Q 3022 1394 3022 966 
Q 3022 478 2636 193 
Q 2250 -91 1575 -91 
Q 1294 -91 989 -36 
Q 684 19 347 128 
L 347 722 
Q 666 556 975 473 
Q 1284 391 1588 391 
Q 1994 391 2212 530 
Q 2431 669 2431 922 
Q 2431 1156 2273 1281 
Q 2116 1406 1581 1522 
L 1381 1569 
Q 847 1681 609 1914 
Q 372 2147 372 2553 
Q 372 3047 722 3315 
Q 1072 3584 1716 3584 
Q 2034 3584 2315 3537 
Q 2597 3491 2834 3397 
z
" transform="scale(0.015625)"/>
       <path id="DejaVuSans-69" d="M 603 3500 
L 1178 3500 
L 1178 0 
L 603 0 
L 603 3500 
z
M 603 4863 
L 1178 4863 
L 1178 4134 
L 603 4134 
L 603 4863 
z
" transform="scale(0.015625)"/>
       <path id="DejaVuSans-74" d="M 1172 4494 
L 1172 3500 
L 2356 3500 
L 2356 3053 
L 1172 3053 
L 1172 1153 
Q 1172 725 1289 603 
Q 1406 481 1766 481 
L 2356 481 
L 2356 0 
L 1766 0 
Q 1100 0 847 248 
Q 594 497 594 1153 
L 594 3053 
L 172 3053 
L 172 3500 
L 594 3500 
L 594 4494 
L 1172 4494 
z
" transform="scale(0.015625)"/>
       <path id="DejaVuSans-79" d="M 2059 -325 
Q 1816 -950 1584 -1140 
Q 1353 -1331 966 -1331 
L 506 -1331 
L 506 -850 
L 844 -850 
Q 1081 -850 1212 -737 
Q 1344 -625 1503 -206 
L 1606 56 
L 191 3500 
L 800 3500 
L 1894 763 
L 2988 3500 
L 3597 3500 
L 2059 -325 
z
" transform="scale(0.015625)"/>
      </defs>
      <use xlink:href="#DejaVuSans-44"/>
      <use xlink:href="#DejaVuSans-65" x="77.001953"/>
      <use xlink:href="#DejaVuSans-6e" x="138.525391"/>
      <use xlink:href="#DejaVuSans-73" x="201.904297"/>
      <use xlink:href="#DejaVuSans-69" x="254.003906"/>
      <use xlink:href="#DejaVuSans-74" x="281.787109"/>
      <use xlink:href="#DejaVuSans-79" x="320.996094"/>
     </g>
    </g>
   </g>
   <g id="patch_3">
    <path d="M 45.982188 187.118437 
L 45.982188 20.798437 
" style="fill: none; stroke: #000000; stroke-width: 0.5; stroke-linejoin: miter; stroke-linecap: square"/>
   </g>
   <g id="patch_4">
    <path d="M 241.282188 187.118437 
L 241.282188 20.798437 
" style="fill: none; stroke: #000000; stroke-width: 0.5; stroke-linejoin: miter; stroke-linecap: square"/>
   </g>
   <g id="patch_5">
    <path d="M 45.982188 187.118437 
L 241.282188 187.118437 
" style="fill: none; stroke: #000000; stroke-width: 0.5; stroke-linejoin: miter; stroke-linecap: square"/>
   </g>
   <g id="patch_6">
    <path d="M 45.982188 20.798437 
L 241.282188 20.798437 
" style="fill: none; stroke: #000000; stroke-width: 0.5; stroke-linejoin: miter; stroke-linecap: square"/>
   </g>
   <g id="text_16">
    <!-- B. -->
    <g transform="translate(45.982188 14.798437) scale(0.1 -0.1)">
     <defs>
      <path id="DejaVuSans-42" d="M 1259 2228 
L 1259 519 
L 2272 519 
Q 2781 519 3026 730 
Q 3272 941 3272 1375 
Q 3272 1813 3026 2020 
Q 2781 2228 2272 2228 
L 1259 2228 
z
M 1259 4147 
L 1259 2741 
L 2194 2741 
Q 2656 2741 2882 2914 
Q 3109 3088 3109 3444 
Q 3109 3797 2882 3972 
Q 2656 4147 2194 4147 
L 1259 4147 
z
M 628 4666 
L 2241 4666 
Q 2963 4666 3353 4366 
Q 3744 4066 3744 3513 
Q 3744 3084 3544 2831 
Q 3344 2578 2956 2516 
Q 3422 2416 3680 2098 
Q 3938 1781 3938 1306 
Q 3938 681 3513 340 
Q 3088 0 2303 0 
L 628 0 
L 628 4666 
z
" transform="scale(0.015625)"/>
     </defs>
     <use xlink:href="#DejaVuSans-42"/>
     <use xlink:href="#DejaVuSans-2e" x="68.603516"/>
    </g>
   </g>
   <g id="legend_1">
    <g id="patch_7">
     <path d="M 175.79125 60.825938 
L 237.082188 60.825938 
Q 238.282188 60.825938 238.282188 59.625938 
L 238.282188 24.998437 
Q 238.282188 23.798438 237.082188 23.798438 
L 175.79125 23.798438 
Q 174.59125 23.798438 174.59125 24.998437 
L 174.59125 59.625938 
Q 174.59125 60.825938 175.79125 60.825938 
z
" style="fill: #ffffff; opacity: 0.8; stroke: #cccccc; stroke-linejoin: miter"/>
    </g>
    <g id="patch_8">
     <path d="M 176.99125 30.7575 
L 188.99125 30.7575 
L 188.99125 26.5575 
L 176.99125 26.5575 
z
" style="fill: #1f77b4; fill-opacity: 0.05; stroke: #1f77b4; stroke-linejoin: miter"/>
    </g>
    <g id="text_17">
     <!-- NNN -->
     <g transform="translate(193.79125 30.7575) scale(0.06 -0.06)">
      <defs>
       <path id="DejaVuSans-4e" d="M 628 4666 
L 1478 4666 
L 3547 763 
L 3547 4666 
L 4159 4666 
L 4159 0 
L 3309 0 
L 1241 3903 
L 1241 0 
L 628 0 
L 628 4666 
z
" transform="scale(0.015625)"/>
      </defs>
      <use xlink:href="#DejaVuSans-4e"/>
      <use xlink:href="#DejaVuSans-4e" x="74.804688"/>
      <use xlink:href="#DejaVuSans-4e" x="149.609375"/>
     </g>
    </g>
    <g id="patch_9">
     <path d="M 176.99125 39.564375 
L 188.99125 39.564375 
L 188.99125 35.364375 
L 176.99125 35.364375 
z
" style="fill: #ff7f0e; fill-opacity: 0.05; stroke: #ff7f0e; stroke-linejoin: miter"/>
    </g>
    <g id="text_18">
     <!-- ONO -->
     <g transform="translate(193.79125 39.564375) scale(0.06 -0.06)">
      <defs>
       <path id="DejaVuSans-4f" d="M 2522 4238 
Q 1834 4238 1429 3725 
Q 1025 3213 1025 2328 
Q 1025 1447 1429 934 
Q 1834 422 2522 422 
Q 3209 422 3611 934 
Q 4013 1447 4013 2328 
Q 4013 3213 3611 3725 
Q 3209 4238 2522 4238 
z
M 2522 4750 
Q 3503 4750 4090 4092 
Q 4678 3434 4678 2328 
Q 4678 1225 4090 567 
Q 3503 -91 2522 -91 
Q 1538 -91 948 565 
Q 359 1222 359 2328 
Q 359 3434 948 4092 
Q 1538 4750 2522 4750 
z
" transform="scale(0.015625)"/>
      </defs>
      <use xlink:href="#DejaVuSans-4f"/>
      <use xlink:href="#DejaVuSans-4e" x="78.710938"/>
      <use xlink:href="#DejaVuSans-4f" x="153.515625"/>
     </g>
    </g>
    <g id="patch_10">
     <path d="M 176.99125 48.37125 
L 188.99125 48.37125 
L 188.99125 44.17125 
L 176.99125 44.17125 
z
" style="fill: #2ca02c; fill-opacity: 0.05; stroke: #2ca02c; stroke-linejoin: miter"/>
    </g>
    <g id="text_19">
     <!-- OCO -->
     <g transform="translate(193.79125 48.37125) scale(0.06 -0.06)">
      <defs>
       <path id="DejaVuSans-43" d="M 4122 4306 
L 4122 3641 
Q 3803 3938 3442 4084 
Q 3081 4231 2675 4231 
Q 1875 4231 1450 3742 
Q 1025 3253 1025 2328 
Q 1025 1406 1450 917 
Q 1875 428 2675 428 
Q 3081 428 3442 575 
Q 3803 722 4122 1019 
L 4122 359 
Q 3791 134 3420 21 
Q 3050 -91 2638 -91 
Q 1578 -91 968 557 
Q 359 1206 359 2328 
Q 359 3453 968 4101 
Q 1578 4750 2638 4750 
Q 3056 4750 3426 4639 
Q 3797 4528 4122 4306 
z
" transform="scale(0.015625)"/>
      </defs>
      <use xlink:href="#DejaVuSans-4f"/>
      <use xlink:href="#DejaVuSans-43" x="78.710938"/>
      <use xlink:href="#DejaVuSans-4f" x="148.535156"/>
     </g>
    </g>
    <g id="patch_11">
     <path d="M 176.99125 57.178125 
L 188.99125 57.178125 
L 188.99125 52.978125 
L 176.99125 52.978125 
z
" style="fill: #d62728; fill-opacity: 0.05; stroke: #d62728; stroke-linejoin: miter"/>
    </g>
    <g id="text_20">
     <!-- triarylboranes -->
     <g transform="translate(193.79125 57.178125) scale(0.06 -0.06)">
      <defs>
       <path id="DejaVuSans-72" d="M 2631 2963 
Q 2534 3019 2420 3045 
Q 2306 3072 2169 3072 
Q 1681 3072 1420 2755 
Q 1159 2438 1159 1844 
L 1159 0 
L 581 0 
L 581 3500 
L 1159 3500 
L 1159 2956 
Q 1341 3275 1631 3429 
Q 1922 3584 2338 3584 
Q 2397 3584 2469 3576 
Q 2541 3569 2628 3553 
L 2631 2963 
z
" transform="scale(0.015625)"/>
       <path id="DejaVuSans-61" d="M 2194 1759 
Q 1497 1759 1228 1600 
Q 959 1441 959 1056 
Q 959 750 1161 570 
Q 1363 391 1709 391 
Q 2188 391 2477 730 
Q 2766 1069 2766 1631 
L 2766 1759 
L 2194 1759 
z
M 3341 1997 
L 3341 0 
L 2766 0 
L 2766 531 
Q 2569 213 2275 61 
Q 1981 -91 1556 -91 
Q 1019 -91 701 211 
Q 384 513 384 1019 
Q 384 1609 779 1909 
Q 1175 2209 1959 2209 
L 2766 2209 
L 2766 2266 
Q 2766 2663 2505 2880 
Q 2244 3097 1772 3097 
Q 1472 3097 1187 3025 
Q 903 2953 641 2809 
L 641 3341 
Q 956 3463 1253 3523 
Q 1550 3584 1831 3584 
Q 2591 3584 2966 3190 
Q 3341 2797 3341 1997 
z
" transform="scale(0.015625)"/>
       <path id="DejaVuSans-6c" d="M 603 4863 
L 1178 4863 
L 1178 0 
L 603 0 
L 603 4863 
z
" transform="scale(0.015625)"/>
       <path id="DejaVuSans-62" d="M 3116 1747 
Q 3116 2381 2855 2742 
Q 2594 3103 2138 3103 
Q 1681 3103 1420 2742 
Q 1159 2381 1159 1747 
Q 1159 1113 1420 752 
Q 1681 391 2138 391 
Q 2594 391 2855 752 
Q 3116 1113 3116 1747 
z
M 1159 2969 
Q 1341 3281 1617 3432 
Q 1894 3584 2278 3584 
Q 2916 3584 3314 3078 
Q 3713 2572 3713 1747 
Q 3713 922 3314 415 
Q 2916 -91 2278 -91 
Q 1894 -91 1617 61 
Q 1341 213 1159 525 
L 1159 0 
L 581 0 
L 581 4863 
L 1159 4863 
L 1159 2969 
z
" transform="scale(0.015625)"/>
       <path id="DejaVuSans-6f" d="M 1959 3097 
Q 1497 3097 1228 2736 
Q 959 2375 959 1747 
Q 959 1119 1226 758 
Q 1494 397 1959 397 
Q 2419 397 2687 759 
Q 2956 1122 2956 1747 
Q 2956 2369 2687 2733 
Q 2419 3097 1959 3097 
z
M 1959 3584 
Q 2709 3584 3137 3096 
Q 3566 2609 3566 1747 
Q 3566 888 3137 398 
Q 2709 -91 1959 -91 
Q 1206 -91 779 398 
Q 353 888 353 1747 
Q 353 2609 779 3096 
Q 1206 3584 1959 3584 
z
" transform="scale(0.015625)"/>
      </defs>
      <use xlink:href="#DejaVuSans-74"/>
      <use xlink:href="#DejaVuSans-72" x="39.208984"/>
      <use xlink:href="#DejaVuSans-69" x="80.322266"/>
      <use xlink:href="#DejaVuSans-61" x="108.105469"/>
      <use xlink:href="#DejaVuSans-72" x="169.384766"/>
      <use xlink:href="#DejaVuSans-79" x="210.498047"/>
      <use xlink:href="#DejaVuSans-6c" x="269.677734"/>
      <use xlink:href="#DejaVuSans-62" x="297.460938"/>
      <use xlink:href="#DejaVuSans-6f" x="360.9375"/>
      <use xlink:href="#DejaVuSans-72" x="422.119141"/>
      <use xlink:href="#DejaVuSans-61" x="463.232422"/>
      <use xlink:href="#DejaVuSans-6e" x="524.511719"/>
      <use xlink:href="#DejaVuSans-65" x="587.890625"/>
      <use xlink:href="#DejaVuSans-73" x="649.414062"/>
     </g>
    </g>
   </g>
  </g>
 </g>
 <defs>
  <clipPath id="pe6f5790825">
   <rect x="45.982188" y="20.798437" width="195.3" height="166.32"/>
  </clipPath>
 </defs>
</svg>
