<?xml version="1.0" encoding="utf-8" standalone="no"?>
<!DOCTYPE svg PUBLIC "-//W3C//DTD SVG 1.1//EN"
  "http://www.w3.org/Graphics/SVG/1.1/DTD/svg11.dtd">
<svg xmlns:xlink="http://www.w3.org/1999/xlink" width="228.78125pt" height="225.538437pt" viewBox="0 0 228.78125 225.538437" xmlns="http://www.w3.org/2000/svg" version="1.1">
 <metadata>
  <rdf:RDF xmlns:dc="http://purl.org/dc/elements/1.1/" xmlns:cc="http://creativecommons.org/ns#" xmlns:rdf="http://www.w3.org/1999/02/22-rdf-syntax-ns#">
   <cc:Work>
    <dc:type rdf:resource="http://purl.org/dc/dcmitype/StillImage"/>
    <dc:date>2024-11-28T17:50:47.696157</dc:date>
    <dc:format>image/svg+xml</dc:format>
    <dc:creator>
     <cc:Agent>
      <dc:title>Matplotlib v3.6.3, https://matplotlib.org/</dc:title>
     </cc:Agent>
    </dc:creator>
   </cc:Work>
  </rdf:RDF>
 </metadata>
 <defs>
  <style type="text/css">*{stroke-linejoin: round; stroke-linecap: butt}</style>
 </defs>
 <g id="figure_1">
  <g id="patch_1">
   <path d="M 0 225.538437 
L 228.78125 225.538437 
L 228.78125 0 
L 0 0 
L 0 225.538437 
z
" style="fill: none"/>
  </g>
  <g id="axes_1">
   <g id="patch_2">
    <path d="M 40.44125 214.838437 
L 124.14125 214.838437 
L 124.14125 20.798437 
L 40.44125 20.798437 
L 40.44125 214.838437 
z
" style="fill: none"/>
   </g>
   <g id="PolyCollection_1">
    <defs>
     <path id="m1e1baa36d7" d="M 65.56852 -19.52 
L 65.53398 -19.52 
L 65.51711 -21.045424 
L 65.487742 -22.570848 
L 65.439681 -24.096272 
L 65.365396 -25.621696 
L 65.25638 -27.14712 
L 65.103563 -28.672544 
L 64.89764 -30.197968 
L 64.629166 -31.723392 
L 64.288515 -33.248816 
L 63.865969 -34.77424 
L 63.352397 -36.299664 
L 62.740913 -37.825088 
L 62.029499 -39.350512 
L 61.223917 -40.875936 
L 60.33966 -42.40136 
L 59.401727 -43.926784 
L 58.441696 -45.452208 
L 57.492745 -46.977632 
L 56.5842 -48.503056 
L 55.737386 -50.02848 
L 54.963907 -51.553904 
L 54.266339 -53.079328 
L 53.640323 -54.604752 
L 53.076815 -56.130176 
L 52.563762 -57.6556 
L 52.087416 -59.181024 
L 51.634011 -60.706448 
L 51.192255 -62.231872 
L 50.756353 -63.757296 
L 50.328528 -65.28272 
L 49.919843 -66.808144 
L 49.548589 -68.333568 
L 49.236328 -69.858992 
L 49.002647 -71.384416 
L 48.860155 -72.90984 
L 48.81125 -74.435264 
L 48.847559 -75.960688 
L 48.952147 -77.486112 
L 49.103836 -79.011536 
L 49.2823 -80.53696 
L 49.472265 -82.062384 
L 49.665536 -83.587808 
L 49.860889 -85.113232 
L 50.063242 -86.638656 
L 50.283715 -88.16408 
L 50.540494 -89.689504 
L 50.858195 -91.214928 
L 51.262923 -92.740352 
L 51.772566 -94.265776 
L 52.385713 -95.7912 
L 53.075109 -97.316624 
L 53.790568 -98.842048 
L 54.472101 -100.367472 
L 55.068946 -101.892896 
L 55.556968 -103.41832 
L 55.947044 -104.943744 
L 56.280571 -106.469168 
L 56.613532 -107.994592 
L 56.995536 -109.520016 
L 57.452414 -111.04544 
L 57.979277 -112.570864 
L 58.545989 -114.096288 
L 59.111318 -115.621712 
L 59.638588 -117.147136 
L 60.106157 -118.67256 
L 60.509782 -120.197984 
L 60.858291 -121.723408 
L 61.166517 -123.248832 
L 61.449203 -124.774256 
L 61.717697 -126.29968 
L 61.979369 -127.825104 
L 62.238679 -129.350528 
L 62.498759 -130.875952 
L 62.762464 -132.401376 
L 63.032195 -133.9268 
L 63.308419 -135.452223 
L 63.587708 -136.977647 
L 63.861758 -138.503071 
L 64.1186 -140.028495 
L 64.3459 -141.553919 
L 64.534904 -143.079343 
L 64.683042 -144.604767 
L 64.793973 -146.130191 
L 64.875348 -147.655615 
L 64.935799 -149.181039 
L 64.982763 -150.706463 
L 65.0219 -152.231887 
L 65.057708 -153.757311 
L 65.094251 -155.282735 
L 65.135174 -156.808159 
L 65.182879 -158.333583 
L 65.237529 -159.859007 
L 65.296679 -161.384431 
L 65.355942 -162.909855 
L 65.410422 -164.435279 
L 65.456239 -165.960703 
L 65.491474 -167.486127 
L 65.516266 -169.011551 
L 65.53224 -170.536975 
L 65.57026 -170.536975 
L 65.57026 -170.536975 
L 65.586234 -169.011551 
L 65.611026 -167.486127 
L 65.646261 -165.960703 
L 65.692078 -164.435279 
L 65.746558 -162.909855 
L 65.805821 -161.384431 
L 65.864971 -159.859007 
L 65.919621 -158.333583 
L 65.967326 -156.808159 
L 66.008249 -155.282735 
L 66.044792 -153.757311 
L 66.0806 -152.231887 
L 66.119737 -150.706463 
L 66.166701 -149.181039 
L 66.227152 -147.655615 
L 66.308527 -146.130191 
L 66.419458 -144.604767 
L 66.567596 -143.079343 
L 66.7566 -141.553919 
L 66.9839 -140.028495 
L 67.240742 -138.503071 
L 67.514792 -136.977647 
L 67.794081 -135.452223 
L 68.070305 -133.9268 
L 68.340036 -132.401376 
L 68.603741 -130.875952 
L 68.863821 -129.350528 
L 69.123131 -127.825104 
L 69.384803 -126.29968 
L 69.653297 -124.774256 
L 69.935983 -123.248832 
L 70.244209 -121.723408 
L 70.592718 -120.197984 
L 70.996343 -118.67256 
L 71.463912 -117.147136 
L 71.991182 -115.621712 
L 72.556511 -114.096288 
L 73.123223 -112.570864 
L 73.650086 -111.04544 
L 74.106964 -109.520016 
L 74.488968 -107.994592 
L 74.821929 -106.469168 
L 75.155456 -104.943744 
L 75.545532 -103.41832 
L 76.033554 -101.892896 
L 76.630399 -100.367472 
L 77.311932 -98.842048 
L 78.027391 -97.316624 
L 78.716787 -95.7912 
L 79.329934 -94.265776 
L 79.839577 -92.740352 
L 80.244305 -91.214928 
L 80.562006 -89.689504 
L 80.818785 -88.16408 
L 81.039258 -86.638656 
L 81.241611 -85.113232 
L 81.436964 -83.587808 
L 81.630235 -82.062384 
L 81.8202 -80.53696 
L 81.998664 -79.011536 
L 82.150353 -77.486112 
L 82.254941 -75.960688 
L 82.29125 -74.435264 
L 82.242345 -72.90984 
L 82.099853 -71.384416 
L 81.866172 -69.858992 
L 81.553911 -68.333568 
L 81.182657 -66.808144 
L 80.773972 -65.28272 
L 80.346147 -63.757296 
L 79.910245 -62.231872 
L 79.468489 -60.706448 
L 79.015084 -59.181024 
L 78.538738 -57.6556 
L 78.025685 -56.130176 
L 77.462177 -54.604752 
L 76.836161 -53.079328 
L 76.138593 -51.553904 
L 75.365114 -50.02848 
L 74.5183 -48.503056 
L 73.609755 -46.977632 
L 72.660804 -45.452208 
L 71.700773 -43.926784 
L 70.76284 -42.40136 
L 69.878583 -40.875936 
L 69.073001 -39.350512 
L 68.361587 -37.825088 
L 67.750103 -36.299664 
L 67.236531 -34.77424 
L 66.813985 -33.248816 
L 66.473334 -31.723392 
L 66.20486 -30.197968 
L 65.998937 -28.672544 
L 65.84612 -27.14712 
L 65.737104 -25.621696 
L 65.662819 -24.096272 
L 65.614758 -22.570848 
L 65.58539 -21.045424 
L 65.56852 -19.52 
z
" style="stroke: #4f4f4f; stroke-width: 1.25"/>
    </defs>
    <g clip-path="url(#p059ef18549)">
     <use xlink:href="#m1e1baa36d7" x="0" y="225.538437" style="fill: #b0c4d7; stroke: #4f4f4f; stroke-width: 1.25"/>
    </g>
   </g>
   <g id="PolyCollection_2">
    <defs>
     <path id="m8d92a8b7fa" d="M 99.141424 -69.511302 
L 98.921076 -69.511302 
L 98.854909 -70.788158 
L 98.756745 -72.065013 
L 98.615403 -73.341869 
L 98.417801 -74.618724 
L 98.149453 -75.89558 
L 97.795333 -77.172435 
L 97.341094 -78.449291 
L 96.77462 -79.726147 
L 96.087768 -81.003002 
L 95.27815 -82.279858 
L 94.350719 -83.556713 
L 93.318873 -84.833569 
L 92.204819 -86.110424 
L 91.038938 -87.38728 
L 89.858006 -88.664135 
L 88.702281 -89.940991 
L 87.611689 -91.217846 
L 86.621545 -92.494702 
L 85.758466 -93.771557 
L 85.037185 -95.048413 
L 84.458964 -96.325268 
L 84.012024 -97.602124 
L 83.674086 -98.87898 
L 83.416671 -100.155835 
L 83.210408 -101.432691 
L 83.030344 -102.709546 
L 82.860192 -103.986402 
L 82.694646 -105.263257 
L 82.539295 -106.540113 
L 82.408193 -107.816968 
L 82.319656 -109.093824 
L 82.29125 -110.370679 
L 82.335117 -111.647535 
L 82.454645 -112.92439 
L 82.64318 -114.201246 
L 82.884949 -115.478101 
L 83.157876 -116.754957 
L 83.437561 -118.031813 
L 83.701483 -119.308668 
L 83.932536 -120.585524 
L 84.121243 -121.862379 
L 84.266362 -123.139235 
L 84.374007 -124.41609 
L 84.455733 -125.692946 
L 84.5262 -126.969801 
L 84.601014 -128.246657 
L 84.695169 -129.523512 
L 84.822216 -130.800368 
L 84.99402 -132.077223 
L 85.220742 -133.354079 
L 85.510684 -134.630934 
L 85.869728 -135.90779 
L 86.30036 -137.184646 
L 86.800508 -138.461501 
L 87.362624 -139.738357 
L 87.973435 -141.015212 
L 88.614678 -142.292068 
L 89.264848 -143.568923 
L 89.901736 -144.845779 
L 90.505273 -146.122634 
L 91.060121 -147.39949 
L 91.557506 -148.676345 
L 91.995955 -149.953201 
L 92.380849 -151.230056 
L 92.722954 -152.506912 
L 93.036257 -153.783767 
L 93.335526 -155.060623 
L 93.634024 -156.337478 
L 93.941691 -157.614334 
L 94.264012 -158.89119 
L 94.601649 -160.168045 
L 94.950783 -161.444901 
L 95.304055 -162.721756 
L 95.651913 -163.998612 
L 95.98415 -165.275467 
L 96.291432 -166.552323 
L 96.566591 -167.829178 
L 96.805539 -169.106034 
L 97.007686 -170.382889 
L 97.175816 -171.659745 
L 97.315484 -172.9366 
L 97.434059 -174.213456 
L 97.539565 -175.490311 
L 97.639549 -176.767167 
L 97.740133 -178.044023 
L 97.845379 -179.320878 
L 97.957043 -180.597734 
L 98.074683 -181.874589 
L 98.196077 -183.151445 
L 98.317825 -184.4283 
L 98.436023 -185.705156 
L 98.546893 -186.982011 
L 98.647297 -188.258867 
L 98.735058 -189.535722 
L 98.809094 -190.812578 
L 98.869375 -192.089433 
L 98.916745 -193.366289 
L 98.952673 -194.643144 
L 98.97897 -195.92 
L 99.08353 -195.92 
L 99.08353 -195.92 
L 99.109827 -194.643144 
L 99.145755 -193.366289 
L 99.193125 -192.089433 
L 99.253406 -190.812578 
L 99.327442 -189.535722 
L 99.415203 -188.258867 
L 99.515607 -186.982011 
L 99.626477 -185.705156 
L 99.744675 -184.4283 
L 99.866423 -183.151445 
L 99.987817 -181.874589 
L 100.105457 -180.597734 
L 100.217121 -179.320878 
L 100.322367 -178.044023 
L 100.422951 -176.767167 
L 100.522935 -175.490311 
L 100.628441 -174.213456 
L 100.747016 -172.9366 
L 100.886684 -171.659745 
L 101.054814 -170.382889 
L 101.256961 -169.106034 
L 101.495909 -167.829178 
L 101.771068 -166.552323 
L 102.07835 -165.275467 
L 102.410587 -163.998612 
L 102.758445 -162.721756 
L 103.111717 -161.444901 
L 103.460851 -160.168045 
L 103.798488 -158.89119 
L 104.120809 -157.614334 
L 104.428476 -156.337478 
L 104.726974 -155.060623 
L 105.026243 -153.783767 
L 105.339546 -152.506912 
L 105.681651 -151.230056 
L 106.066545 -149.953201 
L 106.504994 -148.676345 
L 107.002379 -147.39949 
L 107.557227 -146.122634 
L 108.160764 -144.845779 
L 108.797652 -143.568923 
L 109.447822 -142.292068 
L 110.089065 -141.015212 
L 110.699876 -139.738357 
L 111.261992 -138.461501 
L 111.76214 -137.184646 
L 112.192772 -135.90779 
L 112.551816 -134.630934 
L 112.841758 -133.354079 
L 113.06848 -132.077223 
L 113.240284 -130.800368 
L 113.367331 -129.523512 
L 113.461486 -128.246657 
L 113.5363 -126.969801 
L 113.606767 -125.692946 
L 113.688493 -124.41609 
L 113.796138 -123.139235 
L 113.941257 -121.862379 
L 114.129964 -120.585524 
L 114.361017 -119.308668 
L 114.624939 -118.031813 
L 114.904624 -116.754957 
L 115.177551 -115.478101 
L 115.41932 -114.201246 
L 115.607855 -112.92439 
L 115.727383 -111.647535 
L 115.77125 -110.370679 
L 115.742844 -109.093824 
L 115.654307 -107.816968 
L 115.523205 -106.540113 
L 115.367854 -105.263257 
L 115.202308 -103.986402 
L 115.032156 -102.709546 
L 114.852092 -101.432691 
L 114.645829 -100.155835 
L 114.388414 -98.87898 
L 114.050476 -97.602124 
L 113.603536 -96.325268 
L 113.025315 -95.048413 
L 112.304034 -93.771557 
L 111.440955 -92.494702 
L 110.450811 -91.217846 
L 109.360219 -89.940991 
L 108.204494 -88.664135 
L 107.023562 -87.38728 
L 105.857681 -86.110424 
L 104.743627 -84.833569 
L 103.711781 -83.556713 
L 102.78435 -82.279858 
L 101.974732 -81.003002 
L 101.28788 -79.726147 
L 100.721406 -78.449291 
L 100.267167 -77.172435 
L 99.913047 -75.89558 
L 99.644699 -74.618724 
L 99.447097 -73.341869 
L 99.305755 -72.065013 
L 99.207591 -70.788158 
L 99.141424 -69.511302 
z
" style="stroke: #4f4f4f; stroke-width: 1.25"/>
    </defs>
    <g clip-path="url(#p059ef18549)">
     <use xlink:href="#m8d92a8b7fa" x="0" y="225.538437" style="fill: #8967a1; stroke: #4f4f4f; stroke-width: 1.25"/>
    </g>
   </g>
   <g id="patch_3">
    <path d="M 82.29125 358.84326 
L 82.29125 358.84326 
L 82.29125 358.84326 
L 82.29125 358.84326 
z
" clip-path="url(#p059ef18549)" style="fill: #b0c4d7; stroke: #4f4f4f; stroke-width: 1.25; stroke-linejoin: miter"/>
   </g>
   <g id="patch_4">
    <path d="M 82.29125 358.84326 
L 82.29125 358.84326 
L 82.29125 358.84326 
L 82.29125 358.84326 
z
" clip-path="url(#p059ef18549)" style="fill: #8967a1; stroke: #4f4f4f; stroke-width: 1.25; stroke-linejoin: miter"/>
   </g>
   <g id="matplotlib.axis_1">
    <g id="xtick_1">
     <g id="line2d_1">
      <defs>
       <path id="ma8d11c9e24" d="M 0 0 
L 0 3.5 
" style="stroke: #000000; stroke-width: 0.8"/>
      </defs>
      <g>
       <use xlink:href="#ma8d11c9e24" x="82.29125" y="214.838437" style="stroke: #000000; stroke-width: 0.8"/>
      </g>
     </g>
    </g>
   </g>
   <g id="matplotlib.axis_2">
    <g id="ytick_1">
     <g id="line2d_2">
      <defs>
       <path id="m2dce8590ae" d="M 0 0 
L -3.5 0 
" style="stroke: #000000; stroke-width: 0.8"/>
      </defs>
      <g>
       <use xlink:href="#m2dce8590ae" x="40.44125" y="195.533342" style="stroke: #000000; stroke-width: 0.8"/>
      </g>
     </g>
     <g id="text_1">
      <!-- 300 -->
      <g transform="translate(20.08 198.192795) scale(0.07 -0.07)">
       <defs>
        <path id="DejaVuSans-33" d="M 2597 2516 
Q 3050 2419 3304 2112 
Q 3559 1806 3559 1356 
Q 3559 666 3084 287 
Q 2609 -91 1734 -91 
Q 1441 -91 1130 -33 
Q 819 25 488 141 
L 488 750 
Q 750 597 1062 519 
Q 1375 441 1716 441 
Q 2309 441 2620 675 
Q 2931 909 2931 1356 
Q 2931 1769 2642 2001 
Q 2353 2234 1838 2234 
L 1294 2234 
L 1294 2753 
L 1863 2753 
Q 2328 2753 2575 2939 
Q 2822 3125 2822 3475 
Q 2822 3834 2567 4026 
Q 2313 4219 1838 4219 
Q 1578 4219 1281 4162 
Q 984 4106 628 3988 
L 628 4550 
Q 988 4650 1302 4700 
Q 1616 4750 1894 4750 
Q 2613 4750 3031 4423 
Q 3450 4097 3450 3541 
Q 3450 3153 3228 2886 
Q 3006 2619 2597 2516 
z
" transform="scale(0.015625)"/>
        <path id="DejaVuSans-30" d="M 2034 4250 
Q 1547 4250 1301 3770 
Q 1056 3291 1056 2328 
Q 1056 1369 1301 889 
Q 1547 409 2034 409 
Q 2525 409 2770 889 
Q 3016 1369 3016 2328 
Q 3016 3291 2770 3770 
Q 2525 4250 2034 4250 
z
M 2034 4750 
Q 2819 4750 3233 4129 
Q 3647 3509 3647 2328 
Q 3647 1150 3233 529 
Q 2819 -91 2034 -91 
Q 1250 -91 836 529 
Q 422 1150 422 2328 
Q 422 3509 836 4129 
Q 1250 4750 2034 4750 
z
" transform="scale(0.015625)"/>
       </defs>
       <use xlink:href="#DejaVuSans-33"/>
       <use xlink:href="#DejaVuSans-30" x="63.623047"/>
       <use xlink:href="#DejaVuSans-30" x="127.246094"/>
      </g>
     </g>
    </g>
    <g id="ytick_2">
     <g id="line2d_3">
      <g>
       <use xlink:href="#m2dce8590ae" x="40.44125" y="168.315022" style="stroke: #000000; stroke-width: 0.8"/>
      </g>
     </g>
     <g id="text_2">
      <!-- 350 -->
      <g transform="translate(20.08 170.974475) scale(0.07 -0.07)">
       <defs>
        <path id="DejaVuSans-35" d="M 691 4666 
L 3169 4666 
L 3169 4134 
L 1269 4134 
L 1269 2991 
Q 1406 3038 1543 3061 
Q 1681 3084 1819 3084 
Q 2600 3084 3056 2656 
Q 3513 2228 3513 1497 
Q 3513 744 3044 326 
Q 2575 -91 1722 -91 
Q 1428 -91 1123 -41 
Q 819 9 494 109 
L 494 744 
Q 775 591 1075 516 
Q 1375 441 1709 441 
Q 2250 441 2565 725 
Q 2881 1009 2881 1497 
Q 2881 1984 2565 2268 
Q 2250 2553 1709 2553 
Q 1456 2553 1204 2497 
Q 953 2441 691 2322 
L 691 4666 
z
" transform="scale(0.015625)"/>
       </defs>
       <use xlink:href="#DejaVuSans-33"/>
       <use xlink:href="#DejaVuSans-35" x="63.623047"/>
       <use xlink:href="#DejaVuSans-30" x="127.246094"/>
      </g>
     </g>
    </g>
    <g id="ytick_3">
     <g id="line2d_4">
      <g>
       <use xlink:href="#m2dce8590ae" x="40.44125" y="141.096703" style="stroke: #000000; stroke-width: 0.8"/>
      </g>
     </g>
     <g id="text_3">
      <!-- 400 -->
      <g transform="translate(20.08 143.756156) scale(0.07 -0.07)">
       <defs>
        <path id="DejaVuSans-34" d="M 2419 4116 
L 825 1625 
L 2419 1625 
L 2419 4116 
z
M 2253 4666 
L 3047 4666 
L 3047 1625 
L 3713 1625 
L 3713 1100 
L 3047 1100 
L 3047 0 
L 2419 0 
L 2419 1100 
L 313 1100 
L 313 1709 
L 2253 4666 
z
" transform="scale(0.015625)"/>
       </defs>
       <use xlink:href="#DejaVuSans-34"/>
       <use xlink:href="#DejaVuSans-30" x="63.623047"/>
       <use xlink:href="#DejaVuSans-30" x="127.246094"/>
      </g>
     </g>
    </g>
    <g id="ytick_4">
     <g id="line2d_5">
      <g>
       <use xlink:href="#m2dce8590ae" x="40.44125" y="113.878383" style="stroke: #000000; stroke-width: 0.8"/>
      </g>
     </g>
     <g id="text_4">
      <!-- 450 -->
      <g transform="translate(20.08 116.537836) scale(0.07 -0.07)">
       <use xlink:href="#DejaVuSans-34"/>
       <use xlink:href="#DejaVuSans-35" x="63.623047"/>
       <use xlink:href="#DejaVuSans-30" x="127.246094"/>
      </g>
     </g>
    </g>
    <g id="ytick_5">
     <g id="line2d_6">
      <g>
       <use xlink:href="#m2dce8590ae" x="40.44125" y="86.660063" style="stroke: #000000; stroke-width: 0.8"/>
      </g>
     </g>
     <g id="text_5">
      <!-- 500 -->
      <g transform="translate(20.08 89.319516) scale(0.07 -0.07)">
       <use xlink:href="#DejaVuSans-35"/>
       <use xlink:href="#DejaVuSans-30" x="63.623047"/>
       <use xlink:href="#DejaVuSans-30" x="127.246094"/>
      </g>
     </g>
    </g>
    <g id="ytick_6">
     <g id="line2d_7">
      <g>
       <use xlink:href="#m2dce8590ae" x="40.44125" y="59.441744" style="stroke: #000000; stroke-width: 0.8"/>
      </g>
     </g>
     <g id="text_6">
      <!-- 550 -->
      <g transform="translate(20.08 62.101197) scale(0.07 -0.07)">
       <use xlink:href="#DejaVuSans-35"/>
       <use xlink:href="#DejaVuSans-35" x="63.623047"/>
       <use xlink:href="#DejaVuSans-30" x="127.246094"/>
      </g>
     </g>
    </g>
    <g id="ytick_7">
     <g id="line2d_8">
      <g>
       <use xlink:href="#m2dce8590ae" x="40.44125" y="32.223424" style="stroke: #000000; stroke-width: 0.8"/>
      </g>
     </g>
     <g id="text_7">
      <!-- 600 -->
      <g transform="translate(20.08 34.882877) scale(0.07 -0.07)">
       <defs>
        <path id="DejaVuSans-36" d="M 2113 2584 
Q 1688 2584 1439 2293 
Q 1191 2003 1191 1497 
Q 1191 994 1439 701 
Q 1688 409 2113 409 
Q 2538 409 2786 701 
Q 3034 994 3034 1497 
Q 3034 2003 2786 2293 
Q 2538 2584 2113 2584 
z
M 3366 4563 
L 3366 3988 
Q 3128 4100 2886 4159 
Q 2644 4219 2406 4219 
Q 1781 4219 1451 3797 
Q 1122 3375 1075 2522 
Q 1259 2794 1537 2939 
Q 1816 3084 2150 3084 
Q 2853 3084 3261 2657 
Q 3669 2231 3669 1497 
Q 3669 778 3244 343 
Q 2819 -91 2113 -91 
Q 1303 -91 875 529 
Q 447 1150 447 2328 
Q 447 3434 972 4092 
Q 1497 4750 2381 4750 
Q 2619 4750 2861 4703 
Q 3103 4656 3366 4563 
z
" transform="scale(0.015625)"/>
       </defs>
       <use xlink:href="#DejaVuSans-36"/>
       <use xlink:href="#DejaVuSans-30" x="63.623047"/>
       <use xlink:href="#DejaVuSans-30" x="127.246094"/>
      </g>
     </g>
    </g>
    <g id="text_8">
     <!-- FIA ($kJ.mol^{-1}$) -->
     <g transform="translate(14.4 145.978437) rotate(-90) scale(0.08 -0.08)">
      <defs>
       <path id="DejaVuSans-46" d="M 628 4666 
L 3309 4666 
L 3309 4134 
L 1259 4134 
L 1259 2759 
L 3109 2759 
L 3109 2228 
L 1259 2228 
L 1259 0 
L 628 0 
L 628 4666 
z
" transform="scale(0.015625)"/>
       <path id="DejaVuSans-49" d="M 628 4666 
L 1259 4666 
L 1259 0 
L 628 0 
L 628 4666 
z
" transform="scale(0.015625)"/>
       <path id="DejaVuSans-41" d="M 2188 4044 
L 1331 1722 
L 3047 1722 
L 2188 4044 
z
M 1831 4666 
L 2547 4666 
L 4325 0 
L 3669 0 
L 3244 1197 
L 1141 1197 
L 716 0 
L 50 0 
L 1831 4666 
z
" transform="scale(0.015625)"/>
       <path id="DejaVuSans-20" transform="scale(0.015625)"/>
       <path id="DejaVuSans-28" d="M 1984 4856 
Q 1566 4138 1362 3434 
Q 1159 2731 1159 2009 
Q 1159 1288 1364 580 
Q 1569 -128 1984 -844 
L 1484 -844 
Q 1016 -109 783 600 
Q 550 1309 550 2009 
Q 550 2706 781 3412 
Q 1013 4119 1484 4856 
L 1984 4856 
z
" transform="scale(0.015625)"/>
       <path id="DejaVuSans-Oblique-6b" d="M 1172 4863 
L 1747 4863 
L 1197 2028 
L 3169 3500 
L 3916 3500 
L 1716 1825 
L 3322 0 
L 2625 0 
L 1131 1709 
L 800 0 
L 225 0 
L 1172 4863 
z
" transform="scale(0.015625)"/>
       <path id="DejaVuSans-Oblique-4a" d="M 1069 4666 
L 1703 4666 
L 856 325 
Q 691 -522 298 -901 
Q -94 -1281 -800 -1281 
L -1050 -1281 
L -947 -750 
L -750 -750 
Q -328 -750 -109 -509 
Q 109 -269 225 325 
L 1069 4666 
z
" transform="scale(0.015625)"/>
       <path id="DejaVuSans-2e" d="M 684 794 
L 1344 794 
L 1344 0 
L 684 0 
L 684 794 
z
" transform="scale(0.015625)"/>
       <path id="DejaVuSans-Oblique-6d" d="M 5747 2113 
L 5338 0 
L 4763 0 
L 5166 2094 
Q 5191 2228 5203 2325 
Q 5216 2422 5216 2491 
Q 5216 2772 5059 2928 
Q 4903 3084 4622 3084 
Q 4203 3084 3875 2770 
Q 3547 2456 3450 1953 
L 3066 0 
L 2491 0 
L 2900 2094 
Q 2925 2209 2937 2307 
Q 2950 2406 2950 2484 
Q 2950 2769 2794 2926 
Q 2638 3084 2363 3084 
Q 1938 3084 1609 2770 
Q 1281 2456 1184 1953 
L 800 0 
L 225 0 
L 909 3500 
L 1484 3500 
L 1375 2956 
Q 1609 3263 1923 3423 
Q 2238 3584 2597 3584 
Q 2978 3584 3223 3384 
Q 3469 3184 3519 2828 
Q 3781 3197 4126 3390 
Q 4472 3584 4856 3584 
Q 5306 3584 5551 3325 
Q 5797 3066 5797 2591 
Q 5797 2488 5784 2364 
Q 5772 2241 5747 2113 
z
" transform="scale(0.015625)"/>
       <path id="DejaVuSans-Oblique-6f" d="M 1625 -91 
Q 1009 -91 651 289 
Q 294 669 294 1325 
Q 294 1706 417 2101 
Q 541 2497 738 2766 
Q 1047 3184 1428 3384 
Q 1809 3584 2291 3584 
Q 2888 3584 3255 3212 
Q 3622 2841 3622 2241 
Q 3622 1825 3500 1412 
Q 3378 1000 3181 728 
Q 2875 309 2494 109 
Q 2113 -91 1625 -91 
z
M 891 1344 
Q 891 869 1089 633 
Q 1288 397 1691 397 
Q 2269 397 2648 901 
Q 3028 1406 3028 2181 
Q 3028 2634 2825 2865 
Q 2622 3097 2228 3097 
Q 1903 3097 1650 2945 
Q 1397 2794 1197 2484 
Q 1050 2253 970 1956 
Q 891 1659 891 1344 
z
" transform="scale(0.015625)"/>
       <path id="DejaVuSans-Oblique-6c" d="M 1172 4863 
L 1747 4863 
L 800 0 
L 225 0 
L 1172 4863 
z
" transform="scale(0.015625)"/>
       <path id="DejaVuSans-2212" d="M 678 2272 
L 4684 2272 
L 4684 1741 
L 678 1741 
L 678 2272 
z
" transform="scale(0.015625)"/>
       <path id="DejaVuSans-31" d="M 794 531 
L 1825 531 
L 1825 4091 
L 703 3866 
L 703 4441 
L 1819 4666 
L 2450 4666 
L 2450 531 
L 3481 531 
L 3481 0 
L 794 0 
L 794 531 
z
" transform="scale(0.015625)"/>
       <path id="DejaVuSans-29" d="M 513 4856 
L 1013 4856 
Q 1481 4119 1714 3412 
Q 1947 2706 1947 2009 
Q 1947 1309 1714 600 
Q 1481 -109 1013 -844 
L 513 -844 
Q 928 -128 1133 580 
Q 1338 1288 1338 2009 
Q 1338 2731 1133 3434 
Q 928 4138 513 4856 
z
" transform="scale(0.015625)"/>
      </defs>
      <use xlink:href="#DejaVuSans-46" transform="translate(0 0.684375)"/>
      <use xlink:href="#DejaVuSans-49" transform="translate(57.519531 0.684375)"/>
      <use xlink:href="#DejaVuSans-41" transform="translate(87.011719 0.684375)"/>
      <use xlink:href="#DejaVuSans-20" transform="translate(155.419922 0.684375)"/>
      <use xlink:href="#DejaVuSans-28" transform="translate(187.207031 0.684375)"/>
      <use xlink:href="#DejaVuSans-Oblique-6b" transform="translate(226.220703 0.684375)"/>
      <use xlink:href="#DejaVuSans-Oblique-4a" transform="translate(284.130859 0.684375)"/>
      <use xlink:href="#DejaVuSans-2e" transform="translate(313.623047 0.684375)"/>
      <use xlink:href="#DejaVuSans-Oblique-6d" transform="translate(364.892578 0.684375)"/>
      <use xlink:href="#DejaVuSans-Oblique-6f" transform="translate(462.304688 0.684375)"/>
      <use xlink:href="#DejaVuSans-Oblique-6c" transform="translate(523.486328 0.684375)"/>
      <use xlink:href="#DejaVuSans-2212" transform="translate(558.71724 38.965625) scale(0.7)"/>
      <use xlink:href="#DejaVuSans-31" transform="translate(617.369583 38.965625) scale(0.7)"/>
      <use xlink:href="#DejaVuSans-29" transform="translate(664.640091 0.684375)"/>
     </g>
    </g>
   </g>
   <g id="line2d_9">
    <path d="M 65.55125 195.435564 
L 65.55125 78.587802 
" clip-path="url(#p059ef18549)" style="fill: none; stroke: #4f4f4f; stroke-width: 1.875; stroke-linecap: square"/>
   </g>
   <g id="line2d_10">
    <path d="M 65.55125 161.510896 
L 65.55125 128.162871 
" clip-path="url(#p059ef18549)" style="fill: none; stroke: #4f4f4f; stroke-width: 5.625; stroke-linecap: square"/>
   </g>
   <g id="line2d_11">
    <path d="M 65.55125 145.477335 
" clip-path="url(#p059ef18549)" style="fill: none; stroke: #4f4f4f; stroke-linecap: square"/>
    <defs>
     <path id="mf0c8eb17e0" d="M 2.34375 0 
L -2.34375 -0 
" style="stroke: #ffffff; stroke-width: 1.125"/>
    </defs>
    <g clip-path="url(#p059ef18549)">
     <use xlink:href="#mf0c8eb17e0" x="65.55125" y="145.477335" style="fill: #ffffff; stroke: #ffffff; stroke-width: 1.125"/>
    </g>
   </g>
   <g id="line2d_12">
    <path d="M 99.03125 142.566544 
L 99.03125 43.079028 
" clip-path="url(#p059ef18549)" style="fill: none; stroke: #4f4f4f; stroke-width: 1.875; stroke-linecap: square"/>
   </g>
   <g id="line2d_13">
    <path d="M 99.03125 122.595779 
L 99.03125 89.908617 
" clip-path="url(#p059ef18549)" style="fill: none; stroke: #4f4f4f; stroke-width: 5.625; stroke-linecap: square"/>
   </g>
   <g id="line2d_14">
    <path d="M 99.03125 107.960068 
" clip-path="url(#p059ef18549)" style="fill: none; stroke: #4f4f4f; stroke-linecap: square"/>
    <g clip-path="url(#p059ef18549)">
     <use xlink:href="#mf0c8eb17e0" x="99.03125" y="107.960068" style="fill: #ffffff; stroke: #ffffff; stroke-width: 1.125"/>
    </g>
   </g>
   <g id="patch_5">
    <path d="M 40.44125 214.838437 
L 40.44125 20.798437 
" style="fill: none; stroke: #000000; stroke-width: 0.5; stroke-linejoin: miter; stroke-linecap: square"/>
   </g>
   <g id="patch_6">
    <path d="M 124.14125 214.838437 
L 124.14125 20.798437 
" style="fill: none; stroke: #000000; stroke-width: 0.5; stroke-linejoin: miter; stroke-linecap: square"/>
   </g>
   <g id="patch_7">
    <path d="M 40.44125 214.838437 
L 124.14125 214.838437 
" style="fill: none; stroke: #000000; stroke-width: 0.5; stroke-linejoin: miter; stroke-linecap: square"/>
   </g>
   <g id="patch_8">
    <path d="M 40.44125 20.798437 
L 124.14125 20.798437 
" style="fill: none; stroke: #000000; stroke-width: 0.5; stroke-linejoin: miter; stroke-linecap: square"/>
   </g>
   <g id="text_9">
    <!-- A. -->
    <g transform="translate(40.44125 14.798437) scale(0.1 -0.1)">
     <use xlink:href="#DejaVuSans-41"/>
     <use xlink:href="#DejaVuSans-2e" x="66.658203"/>
    </g>
   </g>
   <g id="legend_1">
    <g id="patch_9">
     <path d="M 130.20125 43.236562 
L 220.38125 43.236562 
Q 221.58125 43.236562 221.58125 42.036563 
L 221.58125 24.998437 
Q 221.58125 23.798437 220.38125 23.798437 
L 130.20125 23.798437 
Q 129.00125 23.798437 129.00125 24.998437 
L 129.00125 42.036563 
Q 129.00125 43.236562 130.20125 43.236562 
z
" style="fill: #ffffff; opacity: 0.8; stroke: #cccccc; stroke-linejoin: miter"/>
    </g>
    <g id="patch_10">
     <path d="M 131.40125 30.7575 
L 143.40125 30.7575 
L 143.40125 26.5575 
L 131.40125 26.5575 
z
" style="fill: #b0c4d7; stroke: #4f4f4f; stroke-width: 1.25; stroke-linejoin: miter"/>
    </g>
    <g id="text_10">
     <!-- $para$ non meso. attract. -->
     <g transform="translate(148.20125 30.7575) scale(0.06 -0.06)">
      <defs>
       <path id="DejaVuSans-Oblique-70" d="M 3175 2156 
Q 3175 2616 2975 2859 
Q 2775 3103 2400 3103 
Q 2144 3103 1911 2972 
Q 1678 2841 1497 2591 
Q 1319 2344 1212 1994 
Q 1106 1644 1106 1300 
Q 1106 863 1306 627 
Q 1506 391 1875 391 
Q 2147 391 2380 519 
Q 2613 647 2778 891 
Q 2956 1147 3065 1494 
Q 3175 1841 3175 2156 
z
M 1394 2969 
Q 1625 3272 1939 3428 
Q 2253 3584 2638 3584 
Q 3175 3584 3472 3232 
Q 3769 2881 3769 2247 
Q 3769 1728 3584 1258 
Q 3400 788 3053 416 
Q 2822 169 2531 39 
Q 2241 -91 1919 -91 
Q 1547 -91 1294 64 
Q 1041 219 916 525 
L 556 -1331 
L -19 -1331 
L 922 3500 
L 1497 3500 
L 1394 2969 
z
" transform="scale(0.015625)"/>
       <path id="DejaVuSans-Oblique-61" d="M 3438 1997 
L 3047 0 
L 2472 0 
L 2578 531 
Q 2325 219 2001 64 
Q 1678 -91 1281 -91 
Q 834 -91 548 182 
Q 263 456 263 884 
Q 263 1497 752 1853 
Q 1241 2209 2100 2209 
L 2900 2209 
L 2931 2363 
Q 2938 2388 2941 2417 
Q 2944 2447 2944 2509 
Q 2944 2788 2717 2942 
Q 2491 3097 2081 3097 
Q 1800 3097 1504 3025 
Q 1209 2953 897 2809 
L 997 3341 
Q 1322 3463 1633 3523 
Q 1944 3584 2234 3584 
Q 2853 3584 3176 3315 
Q 3500 3047 3500 2534 
Q 3500 2431 3484 2292 
Q 3469 2153 3438 1997 
z
M 2816 1759 
L 2241 1759 
Q 1534 1759 1195 1570 
Q 856 1381 856 984 
Q 856 709 1029 553 
Q 1203 397 1509 397 
Q 1978 397 2328 733 
Q 2678 1069 2791 1631 
L 2816 1759 
z
" transform="scale(0.015625)"/>
       <path id="DejaVuSans-Oblique-72" d="M 2853 2969 
Q 2766 3016 2653 3041 
Q 2541 3066 2413 3066 
Q 1953 3066 1609 2717 
Q 1266 2369 1153 1784 
L 800 0 
L 225 0 
L 909 3500 
L 1484 3500 
L 1375 2956 
Q 1603 3259 1920 3421 
Q 2238 3584 2597 3584 
Q 2691 3584 2781 3573 
Q 2872 3563 2963 3538 
L 2853 2969 
z
" transform="scale(0.015625)"/>
       <path id="DejaVuSans-6e" d="M 3513 2113 
L 3513 0 
L 2938 0 
L 2938 2094 
Q 2938 2591 2744 2837 
Q 2550 3084 2163 3084 
Q 1697 3084 1428 2787 
Q 1159 2491 1159 1978 
L 1159 0 
L 581 0 
L 581 3500 
L 1159 3500 
L 1159 2956 
Q 1366 3272 1645 3428 
Q 1925 3584 2291 3584 
Q 2894 3584 3203 3211 
Q 3513 2838 3513 2113 
z
" transform="scale(0.015625)"/>
       <path id="DejaVuSans-6f" d="M 1959 3097 
Q 1497 3097 1228 2736 
Q 959 2375 959 1747 
Q 959 1119 1226 758 
Q 1494 397 1959 397 
Q 2419 397 2687 759 
Q 2956 1122 2956 1747 
Q 2956 2369 2687 2733 
Q 2419 3097 1959 3097 
z
M 1959 3584 
Q 2709 3584 3137 3096 
Q 3566 2609 3566 1747 
Q 3566 888 3137 398 
Q 2709 -91 1959 -91 
Q 1206 -91 779 398 
Q 353 888 353 1747 
Q 353 2609 779 3096 
Q 1206 3584 1959 3584 
z
" transform="scale(0.015625)"/>
       <path id="DejaVuSans-6d" d="M 3328 2828 
Q 3544 3216 3844 3400 
Q 4144 3584 4550 3584 
Q 5097 3584 5394 3201 
Q 5691 2819 5691 2113 
L 5691 0 
L 5113 0 
L 5113 2094 
Q 5113 2597 4934 2840 
Q 4756 3084 4391 3084 
Q 3944 3084 3684 2787 
Q 3425 2491 3425 1978 
L 3425 0 
L 2847 0 
L 2847 2094 
Q 2847 2600 2669 2842 
Q 2491 3084 2119 3084 
Q 1678 3084 1418 2786 
Q 1159 2488 1159 1978 
L 1159 0 
L 581 0 
L 581 3500 
L 1159 3500 
L 1159 2956 
Q 1356 3278 1631 3431 
Q 1906 3584 2284 3584 
Q 2666 3584 2933 3390 
Q 3200 3197 3328 2828 
z
" transform="scale(0.015625)"/>
       <path id="DejaVuSans-65" d="M 3597 1894 
L 3597 1613 
L 953 1613 
Q 991 1019 1311 708 
Q 1631 397 2203 397 
Q 2534 397 2845 478 
Q 3156 559 3463 722 
L 3463 178 
Q 3153 47 2828 -22 
Q 2503 -91 2169 -91 
Q 1331 -91 842 396 
Q 353 884 353 1716 
Q 353 2575 817 3079 
Q 1281 3584 2069 3584 
Q 2775 3584 3186 3129 
Q 3597 2675 3597 1894 
z
M 3022 2063 
Q 3016 2534 2758 2815 
Q 2500 3097 2075 3097 
Q 1594 3097 1305 2825 
Q 1016 2553 972 2059 
L 3022 2063 
z
" transform="scale(0.015625)"/>
       <path id="DejaVuSans-73" d="M 2834 3397 
L 2834 2853 
Q 2591 2978 2328 3040 
Q 2066 3103 1784 3103 
Q 1356 3103 1142 2972 
Q 928 2841 928 2578 
Q 928 2378 1081 2264 
Q 1234 2150 1697 2047 
L 1894 2003 
Q 2506 1872 2764 1633 
Q 3022 1394 3022 966 
Q 3022 478 2636 193 
Q 2250 -91 1575 -91 
Q 1294 -91 989 -36 
Q 684 19 347 128 
L 347 722 
Q 666 556 975 473 
Q 1284 391 1588 391 
Q 1994 391 2212 530 
Q 2431 669 2431 922 
Q 2431 1156 2273 1281 
Q 2116 1406 1581 1522 
L 1381 1569 
Q 847 1681 609 1914 
Q 372 2147 372 2553 
Q 372 3047 722 3315 
Q 1072 3584 1716 3584 
Q 2034 3584 2315 3537 
Q 2597 3491 2834 3397 
z
" transform="scale(0.015625)"/>
       <path id="DejaVuSans-61" d="M 2194 1759 
Q 1497 1759 1228 1600 
Q 959 1441 959 1056 
Q 959 750 1161 570 
Q 1363 391 1709 391 
Q 2188 391 2477 730 
Q 2766 1069 2766 1631 
L 2766 1759 
L 2194 1759 
z
M 3341 1997 
L 3341 0 
L 2766 0 
L 2766 531 
Q 2569 213 2275 61 
Q 1981 -91 1556 -91 
Q 1019 -91 701 211 
Q 384 513 384 1019 
Q 384 1609 779 1909 
Q 1175 2209 1959 2209 
L 2766 2209 
L 2766 2266 
Q 2766 2663 2505 2880 
Q 2244 3097 1772 3097 
Q 1472 3097 1187 3025 
Q 903 2953 641 2809 
L 641 3341 
Q 956 3463 1253 3523 
Q 1550 3584 1831 3584 
Q 2591 3584 2966 3190 
Q 3341 2797 3341 1997 
z
" transform="scale(0.015625)"/>
       <path id="DejaVuSans-74" d="M 1172 4494 
L 1172 3500 
L 2356 3500 
L 2356 3053 
L 1172 3053 
L 1172 1153 
Q 1172 725 1289 603 
Q 1406 481 1766 481 
L 2356 481 
L 2356 0 
L 1766 0 
Q 1100 0 847 248 
Q 594 497 594 1153 
L 594 3053 
L 172 3053 
L 172 3500 
L 594 3500 
L 594 4494 
L 1172 4494 
z
" transform="scale(0.015625)"/>
       <path id="DejaVuSans-72" d="M 2631 2963 
Q 2534 3019 2420 3045 
Q 2306 3072 2169 3072 
Q 1681 3072 1420 2755 
Q 1159 2438 1159 1844 
L 1159 0 
L 581 0 
L 581 3500 
L 1159 3500 
L 1159 2956 
Q 1341 3275 1631 3429 
Q 1922 3584 2338 3584 
Q 2397 3584 2469 3576 
Q 2541 3569 2628 3553 
L 2631 2963 
z
" transform="scale(0.015625)"/>
       <path id="DejaVuSans-63" d="M 3122 3366 
L 3122 2828 
Q 2878 2963 2633 3030 
Q 2388 3097 2138 3097 
Q 1578 3097 1268 2742 
Q 959 2388 959 1747 
Q 959 1106 1268 751 
Q 1578 397 2138 397 
Q 2388 397 2633 464 
Q 2878 531 3122 666 
L 3122 134 
Q 2881 22 2623 -34 
Q 2366 -91 2075 -91 
Q 1284 -91 818 406 
Q 353 903 353 1747 
Q 353 2603 823 3093 
Q 1294 3584 2113 3584 
Q 2378 3584 2631 3529 
Q 2884 3475 3122 3366 
z
" transform="scale(0.015625)"/>
      </defs>
      <use xlink:href="#DejaVuSans-Oblique-70" transform="translate(0 0.78125)"/>
      <use xlink:href="#DejaVuSans-Oblique-61" transform="translate(63.476562 0.78125)"/>
      <use xlink:href="#DejaVuSans-Oblique-72" transform="translate(124.755859 0.78125)"/>
      <use xlink:href="#DejaVuSans-Oblique-61" transform="translate(165.869141 0.78125)"/>
      <use xlink:href="#DejaVuSans-20" transform="translate(227.148438 0.78125)"/>
      <use xlink:href="#DejaVuSans-6e" transform="translate(258.935547 0.78125)"/>
      <use xlink:href="#DejaVuSans-6f" transform="translate(322.314453 0.78125)"/>
      <use xlink:href="#DejaVuSans-6e" transform="translate(383.496094 0.78125)"/>
      <use xlink:href="#DejaVuSans-20" transform="translate(446.875 0.78125)"/>
      <use xlink:href="#DejaVuSans-6d" transform="translate(478.662109 0.78125)"/>
      <use xlink:href="#DejaVuSans-65" transform="translate(576.074219 0.78125)"/>
      <use xlink:href="#DejaVuSans-73" transform="translate(637.597656 0.78125)"/>
      <use xlink:href="#DejaVuSans-6f" transform="translate(689.697266 0.78125)"/>
      <use xlink:href="#DejaVuSans-2e" transform="translate(750.878906 0.78125)"/>
      <use xlink:href="#DejaVuSans-20" transform="translate(782.666016 0.78125)"/>
      <use xlink:href="#DejaVuSans-61" transform="translate(814.453125 0.78125)"/>
      <use xlink:href="#DejaVuSans-74" transform="translate(875.732422 0.78125)"/>
      <use xlink:href="#DejaVuSans-74" transform="translate(914.941406 0.78125)"/>
      <use xlink:href="#DejaVuSans-72" transform="translate(954.150391 0.78125)"/>
      <use xlink:href="#DejaVuSans-61" transform="translate(995.263672 0.78125)"/>
      <use xlink:href="#DejaVuSans-63" transform="translate(1056.542969 0.78125)"/>
      <use xlink:href="#DejaVuSans-74" transform="translate(1111.523438 0.78125)"/>
      <use xlink:href="#DejaVuSans-2e" transform="translate(1150.732422 0.78125)"/>
     </g>
    </g>
    <g id="patch_11">
     <path d="M 131.40125 39.576562 
L 143.40125 39.576562 
L 143.40125 35.376562 
L 131.40125 35.376562 
z
" style="fill: #8967a1; stroke: #4f4f4f; stroke-width: 1.25; stroke-linejoin: miter"/>
    </g>
    <g id="text_11">
     <!-- $para$ meso. attract. -->
     <g transform="translate(148.20125 39.576562) scale(0.06 -0.06)">
      <use xlink:href="#DejaVuSans-Oblique-70" transform="translate(0 0.78125)"/>
      <use xlink:href="#DejaVuSans-Oblique-61" transform="translate(63.476562 0.78125)"/>
      <use xlink:href="#DejaVuSans-Oblique-72" transform="translate(124.755859 0.78125)"/>
      <use xlink:href="#DejaVuSans-Oblique-61" transform="translate(165.869141 0.78125)"/>
      <use xlink:href="#DejaVuSans-20" transform="translate(227.148438 0.78125)"/>
      <use xlink:href="#DejaVuSans-6d" transform="translate(258.935547 0.78125)"/>
      <use xlink:href="#DejaVuSans-65" transform="translate(356.347656 0.78125)"/>
      <use xlink:href="#DejaVuSans-73" transform="translate(417.871094 0.78125)"/>
      <use xlink:href="#DejaVuSans-6f" transform="translate(469.970703 0.78125)"/>
      <use xlink:href="#DejaVuSans-2e" transform="translate(531.152344 0.78125)"/>
      <use xlink:href="#DejaVuSans-20" transform="translate(562.939453 0.78125)"/>
      <use xlink:href="#DejaVuSans-61" transform="translate(594.726562 0.78125)"/>
      <use xlink:href="#DejaVuSans-74" transform="translate(656.005859 0.78125)"/>
      <use xlink:href="#DejaVuSans-74" transform="translate(695.214844 0.78125)"/>
      <use xlink:href="#DejaVuSans-72" transform="translate(734.423828 0.78125)"/>
      <use xlink:href="#DejaVuSans-61" transform="translate(775.537109 0.78125)"/>
      <use xlink:href="#DejaVuSans-63" transform="translate(836.816406 0.78125)"/>
      <use xlink:href="#DejaVuSans-74" transform="translate(891.796875 0.78125)"/>
      <use xlink:href="#DejaVuSans-2e" transform="translate(931.005859 0.78125)"/>
     </g>
    </g>
   </g>
  </g>
 </g>
 <defs>
  <clipPath id="p059ef18549">
   <rect x="40.44125" y="20.798437" width="83.7" height="194.04"/>
  </clipPath>
 </defs>
</svg>
